<svg width="42" height="42" viewBox="0 0 42 42" fill="none" xmlns="http://www.w3.org/2000/svg">
<path d="M18.9087 2.61992C19.6959 1.39439 21.4871 1.39439 22.2743 2.61992L27.1903 10.2737C27.4611 10.6954 27.8804 11 28.3651 11.1273L37.1634 13.4375C38.5722 13.8075 39.1258 15.511 38.2035 16.6384L32.4434 23.679C32.1261 24.0668 31.9659 24.5597 31.9947 25.0601L32.5163 34.1417C32.5998 35.5958 31.1507 36.6487 29.7935 36.1199L21.3176 32.8174C20.8506 32.6355 20.3324 32.6355 19.8654 32.8174L11.3895 36.1199C10.0323 36.6487 8.58314 35.5958 8.66666 34.1417L9.18827 25.0601C9.21701 24.5597 9.05686 24.0668 8.73953 23.679L2.9795 16.6384C2.0572 15.511 2.61072 13.8075 4.01951 13.4375L12.8178 11.1273C13.3025 11 13.7218 10.6954 13.9927 10.2737L18.9087 2.61992Z" fill="#67C8FF"/>
<path d="M18.9087 8.15019C19.6959 6.92466 21.4871 6.92466 22.2743 8.15019L25.305 12.8687C25.5758 13.2903 25.9951 13.595 26.4798 13.7222L31.9039 15.1465C33.3127 15.5164 33.8662 17.22 32.9439 18.3473L29.3929 22.6878C29.0756 23.0757 28.9154 23.5686 28.9442 24.0689L29.2657 29.6676C29.3493 31.1218 27.9001 32.1747 26.5429 31.6459L21.3176 29.6099C20.8506 29.428 20.3324 29.428 19.8654 29.6099L14.6401 31.6459C13.2829 32.1747 11.8338 31.1218 11.9173 29.6676L12.2389 24.0689C12.2676 23.5686 12.1074 23.0757 11.7901 22.6878L8.2391 18.3473C7.3168 17.22 7.87033 15.5164 9.27912 15.1465L14.7032 13.7222C15.1879 13.595 15.6072 13.2903 15.878 12.8687L18.9087 8.15019Z" fill="#9CDBFF"/>
<path d="M18.9087 8.15019C19.6959 6.92466 21.4871 6.92466 22.2743 8.15019L25.305 12.8687C25.5758 13.2903 25.9951 13.595 26.4798 13.7222L31.9039 15.1465C33.3127 15.5164 33.8662 17.22 32.9439 18.3473L29.3929 22.6878C29.0756 23.0757 28.9154 23.5686 28.9442 24.0689L29.2657 29.6676C29.3493 31.1218 27.9001 32.1747 26.5429 31.6459L21.3176 29.6099C20.8506 29.428 20.3324 29.428 19.8654 29.6099L14.6401 31.6459C13.2829 32.1747 11.8338 31.1218 11.9173 29.6676L12.2389 24.0689C12.2676 23.5686 12.1074 23.0757 11.7901 22.6878L8.2391 18.3473C7.3168 17.22 7.87033 15.5164 9.27912 15.1465L14.7032 13.7222C15.1879 13.595 15.6072 13.2903 15.878 12.8687L18.9087 8.15019Z" fill="#9CDBFF"/>
<path d="M18.9087 8.15019C19.6959 6.92466 21.4871 6.92466 22.2743 8.15019L25.305 12.8687C25.5758 13.2903 25.9951 13.595 26.4798 13.7222L31.9039 15.1465C33.3127 15.5164 33.8662 17.22 32.9439 18.3473L29.3929 22.6878C29.0756 23.0757 28.9154 23.5686 28.9442 24.0689L29.2657 29.6676C29.3493 31.1218 27.9001 32.1747 26.5429 31.6459L21.3176 29.6099C20.8506 29.428 20.3324 29.428 19.8654 29.6099L14.6401 31.6459C13.2829 32.1747 11.8338 31.1218 11.9173 29.6676L12.2389 24.0689C12.2676 23.5686 12.1074 23.0757 11.7901 22.6878L8.2391 18.3473C7.3168 17.22 7.87033 15.5164 9.27912 15.1465L14.7032 13.7222C15.1879 13.595 15.6072 13.2903 15.878 12.8687L18.9087 8.15019Z" fill="#9CDBFF"/>
<path d="M18.9082 14.1614C19.6953 12.9359 21.4866 12.9359 22.2737 14.1614L23.2551 15.6893C23.5259 16.1109 23.9452 16.4156 24.4299 16.5428L26.1862 17.004C27.595 17.3739 28.1485 19.0775 27.2262 20.2049L26.0764 21.6103C25.7591 21.9982 25.5989 22.4911 25.6277 22.9914L25.7318 24.8043C25.8153 26.2584 24.3662 27.3113 23.009 26.7825L21.317 26.1233C20.8501 25.9413 20.3318 25.9413 19.8648 26.1233L18.1729 26.7825C16.8157 27.3113 15.3666 26.2584 15.4501 24.8043L15.5542 22.9914C15.5829 22.4911 15.4228 21.9982 15.1055 21.6103L13.9556 20.2049C13.0333 19.0775 13.5869 17.3739 14.9956 17.004L16.752 16.5428C17.2367 16.4156 17.656 16.1109 17.9268 15.6893L18.9082 14.1614Z" fill="#9CDBFF"/>
<path d="M18.9082 14.1614C19.6953 12.9359 21.4866 12.9359 22.2737 14.1614L23.2551 15.6893C23.5259 16.1109 23.9452 16.4156 24.4299 16.5428L26.1862 17.004C27.595 17.3739 28.1485 19.0775 27.2262 20.2049L26.0764 21.6103C25.7591 21.9982 25.5989 22.4911 25.6277 22.9914L25.7318 24.8043C25.8153 26.2584 24.3662 27.3113 23.009 26.7825L21.317 26.1233C20.8501 25.9413 20.3318 25.9413 19.8648 26.1233L18.1729 26.7825C16.8157 27.3113 15.3666 26.2584 15.4501 24.8043L15.5542 22.9914C15.5829 22.4911 15.4228 21.9982 15.1055 21.6103L13.9556 20.2049C13.0333 19.0775 13.5869 17.3739 14.9956 17.004L16.752 16.5428C17.2367 16.4156 17.656 16.1109 17.9268 15.6893L18.9082 14.1614Z" fill="#9CDBFF"/>
<path d="M18.9082 14.1614C19.6953 12.9359 21.4866 12.9359 22.2737 14.1614L23.2551 15.6893C23.5259 16.1109 23.9452 16.4156 24.4299 16.5428L26.1862 17.004C27.595 17.3739 28.1485 19.0775 27.2262 20.2049L26.0764 21.6103C25.7591 21.9982 25.5989 22.4911 25.6277 22.9914L25.7318 24.8043C25.8153 26.2584 24.3662 27.3113 23.009 26.7825L21.317 26.1233C20.8501 25.9413 20.3318 25.9413 19.8648 26.1233L18.1729 26.7825C16.8157 27.3113 15.3666 26.2584 15.4501 24.8043L15.5542 22.9914C15.5829 22.4911 15.4228 21.9982 15.1055 21.6103L13.9556 20.2049C13.0333 19.0775 13.5869 17.3739 14.9956 17.004L16.752 16.5428C17.2367 16.4156 17.656 16.1109 17.9268 15.6893L18.9082 14.1614Z" fill="#DEF3FF"/>
</svg>
