<svg width="41" height="41" viewBox="0 0 41 41" fill="none" xmlns="http://www.w3.org/2000/svg">
<path d="M40.491 20.2455C40.491 31.4267 31.4267 40.491 20.2455 40.491C9.06421 40.491 0 31.4267 0 20.2455C0 9.06421 9.06421 0 20.2455 0C31.4267 0 40.491 9.06421 40.491 20.2455Z" fill="#FFB700"/>
<path d="M36.964 20.2457C36.964 29.4795 29.4785 36.965 20.2447 36.965C11.0109 36.965 3.52539 29.4795 3.52539 20.2457C3.52539 11.0119 11.0109 3.52637 20.2447 3.52637C29.4785 3.52637 36.964 11.0119 36.964 20.2457Z" fill="#FFCD4E"/>
<path d="M13.1816 26.3387V16.7138C13.1816 15.7668 13.769 15.0501 14.9436 14.5637C15.6008 14.2895 16.3201 14.1523 17.1014 14.1523C17.888 14.1523 18.6073 14.2895 19.2593 14.5637C19.6526 14.7293 19.9811 14.9182 20.245 15.1304C20.509 14.9182 20.8375 14.7293 21.2308 14.5637C21.8828 14.2895 22.6021 14.1523 23.3887 14.1523C24.17 14.1523 24.8893 14.2895 25.5465 14.5637C26.7211 15.0501 27.3085 15.7668 27.3085 16.7138V25.6401L25.8337 26.3387H25.7561V16.7138C25.7561 16.3567 25.443 16.054 24.8169 15.8056C24.3822 15.6349 23.9061 15.5495 23.3887 15.5495C22.8712 15.5495 22.3951 15.6349 21.9604 15.8056C21.3343 16.054 21.0212 16.3567 21.0212 16.7138V25.6401L19.5465 26.3387H19.4688V16.7138C19.4688 16.3567 19.1558 16.054 18.5296 15.8056C18.095 15.6349 17.6189 15.5495 17.1014 15.5495C16.584 15.5495 16.1079 15.6349 15.6732 15.8056C15.0471 16.054 14.734 16.3567 14.734 16.7138V25.6401L13.2593 26.3387H13.1816Z" fill="#FF9900"/>
</svg>
