<svg width="13" height="13" viewBox="0 0 13 13" fill="none" xmlns="http://www.w3.org/2000/svg">
<path d="M12.643 1.44062L11.9264 0.779239C11.7042 0.574182 11.4029 0.458984 11.0887 0.458984C10.7745 0.458984 10.4731 0.574182 10.2509 0.779239L9.95171 1.05539L9.87092 0.979447L8.82372 1.94597L8.9045 2.02191L0.984636 9.33158C0.968621 9.348 0.955497 9.36664 0.94574 9.38681C0.945208 9.3914 0.945208 9.39603 0.94574 9.40062V9.41166L0.0107356 12.1897C-0.00189919 12.2258 -0.00341335 12.2644 0.00636188 12.3012C0.0161371 12.338 0.0368156 12.3716 0.0660871 12.3982C0.108313 12.4368 0.165234 12.4586 0.224664 12.459C0.247042 12.4592 0.269306 12.456 0.290488 12.4493L3.30195 11.585H3.32888C3.35074 11.576 3.37093 11.5638 3.38872 11.5491L11.3086 4.23939L11.3909 4.31395L12.4381 3.34743L12.3558 3.27287L12.655 2.99672C12.7654 2.89411 12.8527 2.77235 12.9119 2.63847C12.9711 2.50458 13.0011 2.3612 13 2.21659C12.9989 2.07191 12.9668 1.92885 12.9055 1.79567C12.8443 1.66249 12.7551 1.54182 12.643 1.44062ZM0.550794 11.9343L1.24943 9.86317L2.79929 11.2881L0.550794 11.9343ZM3.22117 11.092L1.46336 9.46965L9.22465 2.31325L10.9899 3.93286L3.22117 11.092ZM11.3819 3.71056L9.46102 1.93768L9.87092 1.55936L11.7903 3.33224L11.3819 3.71056ZM12.3259 2.68881L12.0267 2.96496L10.2689 1.34673L10.5681 1.07058C10.6366 1.00679 10.7182 0.956156 10.8081 0.921604C10.8979 0.887052 10.9943 0.869263 11.0917 0.869263C11.189 0.869263 11.2854 0.887052 11.3753 0.921604C11.4651 0.956156 11.5467 1.00679 11.6153 1.07058L12.3319 1.73195C12.4689 1.86051 12.5452 2.03393 12.5441 2.21428C12.543 2.39464 12.4645 2.56724 12.3259 2.69433V2.68881Z" fill="#1D1D1B"/>
</svg>
