<svg width="14" height="14" viewBox="0 0 14 14" fill="none" xmlns="http://www.w3.org/2000/svg">
<path d="M6.60784 13.2172C4.8552 13.217 3.17442 12.5206 1.93522 11.2812C0.696017 10.0417 -9.76211e-05 8.36085 1.02684e-08 6.60821C9.76417e-05 4.85557 0.6964 3.17475 1.93574 1.93548C3.17508 0.696208 4.85594 0 6.60858 0C8.36122 0 10.0421 0.696208 11.2814 1.93548C12.5208 3.17475 13.2171 4.85557 13.2172 6.60821C13.2173 8.36085 12.5211 10.0417 11.2819 11.2812C10.0427 12.5206 8.36195 13.217 6.60931 13.2172H6.60784ZM6.60784 0.448828C5.3884 0.448537 4.19627 0.809952 3.18228 1.48735C2.16829 2.16474 1.37801 3.12768 0.911418 4.25432C0.444826 5.38097 0.322892 6.62069 0.561043 7.81665C0.799195 9.01261 1.38673 10.1111 2.24931 10.973C3.1119 11.835 4.21077 12.4217 5.4069 12.659C6.60303 12.8963 7.84267 12.7735 8.96898 12.3061C10.0953 11.8387 11.0577 11.0477 11.7343 10.0333C12.411 9.01878 12.7716 7.8264 12.7704 6.60696C12.7687 4.97346 12.1188 3.4074 10.9633 2.25275C9.80787 1.09811 8.24134 0.449295 6.60784 0.448828Z" fill="#1D1D1B"/>
<path d="M6.60593 7.73042C7.2232 7.73042 7.72359 7.23003 7.72359 6.61277C7.72359 5.99551 7.2232 5.49512 6.60593 5.49512C5.98867 5.49512 5.48828 5.99551 5.48828 6.61277C5.48828 7.23003 5.98867 7.73042 6.60593 7.73042Z" fill="#1D1D1B"/>
</svg>
