<svg width="81" height="81" viewBox="0 0 81 81" fill="none" xmlns="http://www.w3.org/2000/svg">
<path d="M40.1787 1.27021e-05C31.1457 -0.00623415 22.3769 3.04734 15.3016 8.66301H15.1387V8.79101C7.7336 14.7118 2.66286 23.0623 0.824507 32.3634C-1.01385 41.6646 0.498817 51.3162 5.09459 59.609C9.69036 67.9017 17.0727 74.3005 25.9341 77.6719C34.7955 81.0434 44.5641 81.17 53.5099 78.0293C62.4557 74.8886 70.0013 68.6833 74.8104 60.5125C79.6196 52.3416 81.3819 42.7324 79.7852 33.3867C78.1885 24.0411 73.3358 15.562 66.0867 9.45128C58.8376 3.34055 49.6597 -0.00752568 40.1787 1.27021e-05ZM16.3557 11.663H26.8757C28.9398 11.6092 30.9411 12.3761 32.4408 13.7955C33.9404 15.2149 34.816 17.171 34.8757 19.235V19.341C34.8147 21.4046 33.9387 23.3599 32.4393 24.7791C30.94 26.1982 28.9394 26.9655 26.8757 26.913H25.3757V37.59C25.315 39.6537 24.439 41.6094 22.9396 43.0287C21.4403 44.448 19.4396 45.2155 17.3757 45.163H3.34566C2.49035 38.9336 3.23619 32.589 5.5128 26.7277C7.78941 20.8665 11.5217 15.6819 16.3576 11.663H16.3557ZM3.87266 48.163H17.3727C20.2321 48.215 22.9955 47.1313 25.0574 45.1495C27.1193 43.1677 28.3115 40.4493 28.3727 37.59V29.815C30.956 29.5156 33.3429 28.2888 35.0901 26.3625C36.8373 24.4362 37.826 21.9412 37.8727 19.341V19.235C37.8112 16.3759 36.6189 13.6578 34.5571 11.6762C32.4952 9.69453 29.7319 8.61101 26.8727 8.66301H20.4867C25.6152 5.45141 31.4508 3.54145 37.4857 3.09926C43.5207 2.65706 49.5723 3.69602 55.1142 6.12578C60.6562 8.55553 65.5205 12.3025 69.2842 17.0407C73.0479 21.779 75.597 27.365 76.7097 33.313H48.6747C42.6087 33.313 37.6747 37.849 37.6747 43.425V50.734C32.3157 51.409 28.1747 55.645 28.1747 60.754V60.854C28.1747 66.43 33.1107 70.967 39.1747 70.967H60.9997C55.9756 74.3699 50.1945 76.4904 44.1618 77.1432C38.129 77.796 32.0281 76.9613 26.3924 74.712C20.7567 72.4626 15.7578 68.8671 11.8324 64.2398C7.90711 59.6124 5.17493 54.0941 3.87468 48.167L3.87266 48.163ZM64.8417 67.963H39.1727C34.7607 67.963 31.1727 64.772 31.1727 60.85V60.75C31.1727 56.828 34.7627 53.636 39.1727 53.636H40.6727V43.425C40.6727 39.504 44.2627 36.313 48.6727 36.313H77.1557C77.2885 37.5971 77.3552 38.8871 77.3557 40.178C77.3571 45.4321 76.2422 50.6265 74.0849 55.4172C71.9275 60.208 68.7768 64.4857 64.8417 67.967V67.963Z" fill="#161615"/>
<path d="M49.9604 25.6469C51.3074 25.6469 52.624 25.2474 53.744 24.4991C54.8639 23.7508 55.7367 22.6871 56.2521 21.4427C56.7675 20.1983 56.9023 18.829 56.6395 17.5079C56.3766 16.1869 55.7279 14.9735 54.7755 14.0211C53.823 13.0688 52.6094 12.4202 51.2884 12.1576C49.9673 11.8949 48.598 12.0299 47.3536 12.5455C46.1093 13.0611 45.0458 13.9341 44.2976 15.0541C43.5494 16.1742 43.1502 17.4909 43.1504 18.8379C43.1528 20.6432 43.8711 22.3738 45.1477 23.6503C46.4243 24.9267 48.1551 25.6447 49.9604 25.6469ZM49.9604 15.0269C50.7139 15.0269 51.4505 15.2503 52.077 15.6689C52.7036 16.0875 53.1919 16.6825 53.4803 17.3786C53.7687 18.0747 53.8442 18.8407 53.6973 19.5798C53.5503 20.3188 53.1876 20.9977 52.6548 21.5306C52.1221 22.0635 51.4433 22.4264 50.7043 22.5735C49.9653 22.7206 49.1993 22.6453 48.5031 22.3571C47.8069 22.0689 47.2118 21.5807 46.793 20.9543C46.3742 20.3279 46.1506 19.5914 46.1504 18.8379C46.1507 17.8272 46.5521 16.8579 47.2664 16.143C47.9808 15.4281 48.9497 15.0259 49.9604 15.0249V15.0269Z" fill="#161615"/>
</svg>
