<svg width="64" height="65" viewBox="0 0 64 65" fill="none" xmlns="http://www.w3.org/2000/svg">
<path d="M31.8621 64.249C30.9988 64.2505 30.1437 64.0815 29.3459 63.7517C28.5481 63.4218 27.8233 62.9377 27.2131 62.327L1.92114 37.035C1.28121 36.3928 0.780736 35.6254 0.451048 34.7809C0.12136 33.9364 -0.0304551 33.0329 0.00512536 32.127C-0.0306363 31.2211 0.121045 30.3176 0.450743 29.473C0.780441 28.6284 1.28107 27.8611 1.92114 27.219L27.2131 1.92699C27.8223 1.31427 28.5469 0.828474 29.3451 0.497703C30.1433 0.166931 30.9991 -0.00222103 31.8631 2.20187e-05C32.7269 -0.00208869 33.5826 0.167118 34.3806 0.497886C35.1786 0.828654 35.9031 1.31439 36.5121 1.92699C37.7439 3.16102 38.4358 4.83339 38.4358 6.577C38.4358 8.32061 37.7439 9.99299 36.5121 11.227L21.8401 25.894H63.6901V28.894H18.2231C17.9265 28.8938 17.6368 28.8058 17.3903 28.641C17.1437 28.4762 16.9516 28.242 16.8381 27.968C16.7245 27.6939 16.6947 27.3922 16.7526 27.1012C16.8104 26.8102 16.9533 26.5428 17.1631 26.333L34.3911 9.105C35.0607 8.43386 35.4367 7.52455 35.4367 6.57651C35.4367 5.62848 35.0607 4.71914 34.3911 4.048C33.7202 3.37792 32.8108 3.00155 31.8626 3.00155C30.9144 3.00155 30.005 3.37792 29.3341 4.048L4.0401 29.34C3.68744 29.6944 3.41298 30.1187 3.23437 30.5856C3.05576 31.0526 2.97697 31.5518 3.00311 32.051C3.0061 32.1016 3.0061 32.1524 3.00311 32.203C2.97425 32.7026 3.05189 33.2027 3.23083 33.67C3.40978 34.1374 3.68598 34.5614 4.04114 34.914L29.3321 60.206C30.0035 60.8751 30.9127 61.2508 31.8606 61.2508C32.8085 61.2508 33.7177 60.8751 34.3891 60.206C35.0585 59.5346 35.4344 58.6251 35.4344 57.677C35.4344 56.7289 35.0585 55.8194 34.3891 55.148L17.1611 37.921C16.9513 37.7112 16.8084 37.4438 16.7505 37.1528C16.6927 36.8618 16.7225 36.5601 16.8361 36.286C16.9496 36.012 17.1417 35.7779 17.3882 35.613C17.6348 35.4482 17.9246 35.3602 18.2211 35.36H63.6921V38.36H21.8401L36.5081 53.027C37.7394 54.2613 38.4309 55.9336 38.4309 57.677C38.4309 59.4205 37.7394 61.0927 36.5081 62.327C35.8982 62.9373 35.1739 63.4212 34.3766 63.751C33.5794 64.0808 32.7249 64.2501 31.8621 64.249Z" fill="#161615"/>
</svg>
