<svg width="81" height="74" viewBox="0 0 81 74" fill="none" xmlns="http://www.w3.org/2000/svg">
<path d="M40.4181 73.218L39.4771 72.46C31.8191 66.292 24.8631 59.005 18.1361 51.96L17.6641 51.465C12.8664 46.4904 8.57838 41.0483 4.8641 35.22C0.5641 28.38 -0.865893 22.106 0.503107 16.041C2.66611 6.44702 11.3221 0.00201416 22.0421 0.00201416C30.5421 0.00201416 37.1101 4.70202 39.9161 6.70702C40.0861 6.82902 40.2581 6.95202 40.4161 7.06502C40.5811 6.95002 40.7571 6.82402 40.9321 6.69902C43.9741 4.52502 50.3061 -0.000976562 58.7981 -0.000976562C69.5181 -0.000976562 78.1741 6.44403 80.3371 16.038C81.7061 22.104 80.2791 28.378 75.9761 35.217C72.2614 41.045 67.9734 46.4871 63.1761 51.462L62.7051 51.956C55.9771 59.004 49.0201 66.293 41.3571 72.456L40.4181 73.218ZM22.0411 3.00002C12.6101 3.00002 5.30409 8.37703 3.42709 16.7C2.24309 21.952 3.54309 27.487 7.40209 33.622C11.0096 39.2788 15.1744 44.5601 19.8341 49.387L20.3061 49.887C26.6871 56.572 33.2761 63.475 40.4181 69.358C47.5631 63.476 54.1541 56.572 60.5361 49.886L61.0071 49.391C65.6662 44.5621 69.8309 39.2795 73.4391 33.622C77.2971 27.488 78.5971 21.953 77.4141 16.7C75.5371 8.37803 68.2311 3.00002 58.8001 3.00002C51.2701 3.00002 45.4661 7.14602 42.6771 9.13802C42.1737 9.5235 41.6445 9.874 41.0931 10.187L40.4151 10.528L39.7391 10.182C39.1944 9.8703 38.6709 9.52286 38.1721 9.14201C35.3801 7.15001 29.5771 3.00002 22.0411 3.00002Z" fill="#161615"/>
</svg>
