<svg width="80" height="83" viewBox="0 0 80 83" fill="none" xmlns="http://www.w3.org/2000/svg">
<path d="M60.418 82.8827H18.818C13.8288 82.8774 9.04543 80.8931 5.51752 77.3652C1.9896 73.8372 0.00529417 69.0539 0 64.0647V22.5347H79.24V64.0647C79.2347 69.0546 77.2498 73.8385 73.7211 77.3666C70.1923 80.8946 65.4079 82.8784 60.418 82.8827ZM2.992 25.5347V64.0647C2.99677 68.2584 4.66483 72.279 7.63025 75.2444C10.5957 78.2098 14.6163 79.8779 18.81 79.8827H60.418C64.6117 79.8779 68.6323 78.2098 71.5977 75.2444C74.5632 72.279 76.2312 68.2584 76.236 64.0647V25.5347H2.992Z" fill="#161615"/>
<path d="M58.8869 19.2745H55.8869C55.8869 14.9582 54.1722 10.8188 51.1202 7.76669C48.0681 4.71463 43.9286 3 39.6124 3C35.2961 3 31.1566 4.71463 28.1046 7.76669C25.0525 10.8188 23.3379 14.9582 23.3379 19.2745H20.3379C20.3379 14.1626 22.3686 9.26004 25.9832 5.64537C29.5979 2.0307 34.5005 0 39.6124 0C44.7243 0 49.6268 2.0307 53.2415 5.64537C56.8562 9.26004 58.8869 14.1626 58.8869 19.2745Z" fill="#161615"/>
<path d="M56.052 51.7487V40.1417C56.0394 39.2572 55.6764 38.4138 55.0428 37.7965C54.4092 37.1791 53.5566 36.8383 52.672 36.8487H26.588C25.7035 36.8383 24.851 37.1792 24.2176 37.7965C23.5841 38.4139 23.2214 39.2573 23.209 40.1417V48.5077H20.209V40.1417C20.2222 38.4619 20.9013 36.8559 22.0972 35.6761C23.2931 34.4963 24.9081 33.8391 26.588 33.8487H52.672C54.3519 33.8394 55.9669 34.4967 57.1629 35.6764C58.3589 36.856 59.0383 38.4619 59.052 40.1417V45.2657L62.696 42.1657L64.637 44.4527L56.052 51.7487Z" fill="#161615"/>
<path d="M52.6359 70.5527H26.5519C24.8723 70.5623 23.2574 69.9052 22.0617 68.7256C20.866 67.546 20.1871 65.9403 20.1739 64.2607V59.1367L16.5289 62.2367L14.5879 59.9497L23.1739 52.6587V64.2607C23.1865 65.1448 23.5492 65.9878 24.1824 66.6049C24.8157 67.222 25.6678 67.5628 26.5519 67.5527H52.6359C53.5203 67.5631 54.3727 67.2224 55.0063 66.6053C55.6399 65.9882 56.003 65.1451 56.0159 64.2607V55.8947H59.0159V64.2607C59.0024 65.9405 58.3231 67.5464 57.127 68.726C55.9309 69.9056 54.3157 70.5625 52.6359 70.5527Z" fill="#161615"/>
</svg>
