<svg width="74" height="75" viewBox="0 0 74 75" fill="none" xmlns="http://www.w3.org/2000/svg">
<path d="M36.5089 40.338C32.5198 40.338 28.6203 39.1551 25.3036 36.9389C21.9868 34.7227 19.4017 31.5728 17.8751 27.8874C16.3486 24.202 15.9492 20.1466 16.7274 16.2342C17.5056 12.3218 19.4265 8.72807 22.2472 5.90739C25.0679 3.0867 28.6617 1.16578 32.5741 0.38755C36.4865 -0.390675 40.5418 0.00874162 44.2272 1.53529C47.9126 3.06183 51.0626 5.64695 53.2788 8.96372C55.495 12.2805 56.6779 16.18 56.6779 20.169C56.6718 25.5163 54.5449 30.6428 50.7638 34.4239C46.9827 38.205 41.8561 40.3319 36.5089 40.338ZM36.5089 3.00001C33.1131 3.00001 29.7937 4.00695 26.9703 5.8935C24.1469 7.78006 21.9462 10.4615 20.6468 13.5987C19.3473 16.736 19.0073 20.1881 19.6697 23.5185C20.3322 26.849 21.9674 29.9082 24.3685 32.3093C26.7697 34.7105 29.8289 36.3457 33.1593 37.0081C36.4898 37.6706 39.9419 37.3306 43.0791 36.0311C46.2164 34.7316 48.8978 32.531 50.7844 29.7076C52.6709 26.8842 53.6779 23.5647 53.6779 20.169C53.6728 15.6171 51.8623 11.253 48.6436 8.03425C45.4249 4.81553 41.0608 3.00504 36.5089 3.00001Z" fill="#161615"/>
<path d="M73.484 74.151H0V63.269C0.00529386 58.6464 1.84403 54.2147 5.11279 50.9461C8.38156 47.6775 12.8134 45.839 17.436 45.834H56.048C60.6706 45.839 65.1024 47.6775 68.3712 50.9461C71.64 54.2147 73.4787 58.6464 73.484 63.269V74.151ZM3 71.151H70.484V63.266C70.4795 59.4388 68.9571 55.7696 66.2508 53.0635C63.5444 50.3574 59.8752 48.8352 56.048 48.831H17.436C13.6088 48.8352 9.93958 50.3574 7.23325 53.0635C4.52692 55.7696 3.0045 59.4388 3 63.266V71.151Z" fill="#161615"/>
</svg>
