<svg width="22" height="25" viewBox="0 0 22 25" fill="none" xmlns="http://www.w3.org/2000/svg">
<path d="M10.5106 25C9.58716 24.9986 8.70198 24.6311 8.04918 23.978C7.39638 23.3249 7.02926 22.4395 7.02832 21.5161H7.99561C7.99629 22.1831 8.26144 22.8225 8.73289 23.2943C9.20434 23.766 9.84362 24.0316 10.5106 24.0327C11.1775 24.0316 11.8168 23.766 12.2883 23.2943C12.7597 22.8225 13.0249 22.1831 13.0255 21.5161H13.9928C13.9918 22.4395 13.6246 23.3248 12.9719 23.9779C12.3191 24.631 11.434 24.9985 10.5106 25Z" fill="#A5A5A5"/>
<path d="M19.5404 20.4744H1.48009C1.2076 20.4739 0.940786 20.3965 0.710417 20.251C0.480047 20.1054 0.2955 19.8977 0.178102 19.6518C0.0411469 19.385 -0.018744 19.0853 0.00511862 18.7863C0.0289813 18.4873 0.135656 18.2008 0.313203 17.9591L1.61357 16.1915C2.27049 15.2833 2.62258 14.1903 2.61924 13.0694V10.7524C2.61924 6.80684 5.13614 3.39616 8.65967 2.48561V1.85043C8.66018 1.35982 8.85528 0.88945 9.20219 0.542538C9.5491 0.195625 10.0195 0.000512117 10.5101 0C11.0007 0.000511793 11.4712 0.195605 11.8182 0.542498C12.1652 0.889392 12.3605 1.35976 12.3612 1.85043V2.48561C15.884 3.39616 18.4013 6.80619 18.4013 10.7524V13.0694C18.398 14.1904 18.7504 15.2834 19.4076 16.1915L20.707 17.9591C20.8847 18.2007 20.9916 18.4872 21.0155 18.7862C21.0393 19.0853 20.9793 19.3851 20.8421 19.6518C20.7247 19.8977 20.5403 20.1054 20.31 20.251C20.0796 20.3965 19.8129 20.474 19.5404 20.4744ZM10.5101 0.967293C10.2759 0.967549 10.0515 1.06067 9.8859 1.22624C9.72034 1.3918 9.62721 1.61628 9.62696 1.85043V2.87027C9.62705 2.98182 9.58858 3.08998 9.51807 3.17642C9.44756 3.26286 9.34933 3.32226 9.24004 3.34457C5.96478 4.00652 3.5875 7.12217 3.5875 10.7524V13.0694C3.59057 14.3963 3.17289 15.6899 2.3945 16.7645L1.09446 18.532C1.0236 18.63 0.981284 18.7458 0.972234 18.8664C0.963184 18.987 0.987751 19.1078 1.0432 19.2153C1.08207 19.2997 1.14375 19.3716 1.22128 19.4229C1.29881 19.4741 1.3891 19.5027 1.48202 19.5055H19.5423C19.6353 19.5027 19.7256 19.4741 19.8031 19.4229C19.8806 19.3716 19.9423 19.2997 19.9812 19.2153C20.0366 19.1077 20.0611 18.9869 20.0519 18.8663C20.0428 18.7457 20.0003 18.63 19.9293 18.532L18.6299 16.7645C17.8515 15.6899 17.4338 14.3963 17.4369 13.0694V10.7524C17.4369 7.12217 15.0596 4.00652 11.7847 3.34457C11.6754 3.32226 11.5771 3.26286 11.5066 3.17642C11.4361 3.08998 11.3976 2.98182 11.3977 2.87027V1.85043C11.3976 1.73412 11.3745 1.61899 11.3297 1.51162C11.285 1.40426 11.2195 1.30676 11.1371 1.22473C11.0546 1.1427 10.9568 1.07774 10.8492 1.03356C10.7416 0.989388 10.6264 0.966869 10.5101 0.967293Z" fill="#A5A5A5"/>
</svg>
