<svg width="83" height="68" viewBox="0 0 83 68" fill="none" xmlns="http://www.w3.org/2000/svg">
<path d="M76.9171 67.8078H5.41705C3.98051 67.8062 2.60323 67.2349 1.58734 66.2192C0.571454 65.2035 -0.000100391 63.8263 -0.00195312 62.3898V14.2808C-0.000364543 12.8442 0.571092 11.4669 1.58704 10.4511C2.60298 9.43534 3.98042 8.86412 5.41705 8.86279H76.9171C78.3537 8.86412 79.7311 9.43534 80.747 10.4511C81.763 11.4669 82.3345 12.8442 82.3361 14.2808V62.3898C82.3342 63.8263 81.7626 65.2035 80.7468 66.2192C79.7309 67.2349 78.3536 67.8062 76.9171 67.8078ZM5.41705 11.8628C4.77583 11.8633 4.161 12.1182 3.70749 12.5715C3.25398 13.0249 2.99884 13.6396 2.99805 14.2808V62.3898C2.99884 63.031 3.25398 63.6457 3.70749 64.0991C4.161 64.5524 4.77583 64.8073 5.41705 64.8078H76.9171C77.5583 64.8073 78.1731 64.5524 78.6266 64.0991C79.0801 63.6457 79.3353 63.031 79.3361 62.3898V14.2808C79.3353 13.6396 79.0801 13.0249 78.6266 12.5715C78.1731 12.1182 77.5583 11.8633 76.9171 11.8628H5.41705Z" fill="#161615"/>
<path d="M70.3713 27.1501H64.4903C63.0537 27.1482 61.6766 26.5767 60.6609 25.5608C59.6452 24.5449 59.0739 23.1677 59.0723 21.7311V20.7051C59.0741 19.2687 59.6456 17.8917 60.6613 16.876C61.6769 15.8604 63.0539 15.289 64.4903 15.2871H70.3713C71.8077 15.2887 73.1849 15.86 74.2006 16.8757C75.2164 17.8915 75.7877 19.2687 75.7893 20.7051V21.7311C75.788 23.1677 75.2167 24.5452 74.201 25.5611C73.1852 26.577 71.8079 27.1485 70.3713 27.1501ZM64.4903 18.2871C63.8492 18.2879 63.2347 18.5429 62.7814 18.9962C62.3281 19.4495 62.0731 20.0641 62.0723 20.7051V21.7311C62.0728 22.3723 62.3277 22.9872 62.781 23.4407C63.2343 23.8942 63.8491 24.1493 64.4903 24.1501H70.3713C71.0125 24.1493 71.6272 23.8942 72.0806 23.4407C72.5339 22.9872 72.7888 22.3723 72.7893 21.7311V20.7051C72.7885 20.0641 72.5335 19.4495 72.0802 18.9962C71.6269 18.5429 71.0123 18.2879 70.3713 18.2871H64.4903Z" fill="#161615"/>
<path d="M53.321 11.863H29.021V4.75299C29.0223 3.49282 29.5235 2.28465 30.4146 1.39358C31.3057 0.502504 32.5138 0.00132357 33.774 0H48.574C49.8342 0.00132357 51.0424 0.502504 51.9334 1.39358C52.8245 2.28465 53.3257 3.49282 53.327 4.75299L53.321 11.863ZM32.021 8.86299H50.321V4.75299C50.3205 4.28823 50.1356 3.84266 49.807 3.51402C49.4783 3.18539 49.0328 3.00053 48.568 3H33.768C33.3032 3.00026 32.8574 3.18504 32.5287 3.51373C32.2001 3.84243 32.0153 4.28815 32.015 4.75299L32.021 8.86299Z" fill="#161615"/>
<path d="M41.1682 60.896C37.0706 60.896 33.065 59.6809 29.6579 57.4044C26.2508 55.1278 23.5954 51.8921 22.0273 48.1064C20.4592 44.3207 20.0489 40.155 20.8483 36.1361C21.6477 32.1172 23.6209 28.4256 26.5183 25.5281C29.4158 22.6307 33.1074 20.6575 37.1263 19.8581C41.1452 19.0587 45.3109 19.4689 49.0967 21.037C52.8824 22.6051 56.118 25.2606 58.3946 28.6677C60.6711 32.0747 61.8862 36.0803 61.8862 40.178C61.8801 45.6708 59.6954 50.937 55.8113 54.8211C51.9273 58.7051 46.6611 60.8899 41.1682 60.896ZM41.1682 22.46C37.6639 22.46 34.2383 23.4991 31.3246 25.446C28.4109 27.3929 26.1399 30.16 24.7989 33.3976C23.4579 36.6351 23.107 40.1976 23.7907 43.6346C24.4743 47.0715 26.1618 50.2286 28.6397 52.7065C31.1176 55.1844 34.2746 56.8719 37.7116 57.5555C41.1485 58.2392 44.711 57.8883 47.9486 56.5473C51.1861 55.2062 53.9533 52.9353 55.9002 50.0216C57.8471 47.1078 58.8862 43.6823 58.8862 40.178C58.8806 35.4806 57.0122 30.9771 53.6906 27.6556C50.369 24.334 45.8656 22.4655 41.1682 22.46Z" fill="#161615"/>
<path d="M41.1682 54.54C38.3273 54.5398 35.5503 53.6972 33.1882 52.1188C30.8262 50.5403 28.9853 48.2969 27.8983 45.6722C26.8112 43.0475 26.527 40.1594 27.0813 37.3731C27.6357 34.5869 29.0038 32.0275 31.0126 30.0188C33.0215 28.0101 35.5809 26.6421 38.3673 26.0879C41.1536 25.5338 44.0417 25.8183 46.6663 26.9055C49.2909 27.9927 51.5342 29.8338 53.1125 32.1959C54.6908 34.558 55.5332 37.3351 55.5332 40.176C55.5289 43.9845 54.0141 47.6357 51.321 50.3286C48.6279 53.0215 44.9766 54.536 41.1682 54.54ZM41.1682 28.811C38.9207 28.8112 36.7237 29.4778 34.8551 30.7266C32.9864 31.9754 31.53 33.7502 30.67 35.8267C29.81 37.9031 29.5851 40.188 30.0236 42.3923C30.4621 44.5966 31.5444 46.6214 33.1336 48.2106C34.7228 49.7998 36.7476 50.8821 38.9519 51.3206C41.1562 51.7591 43.4411 51.5342 45.5175 50.6742C47.594 49.8142 49.3688 48.3578 50.6176 46.4891C51.8663 44.6205 52.533 42.4235 52.5332 40.176C52.5292 37.1632 51.3305 34.275 49.2 32.1448C47.0694 30.0147 44.1809 28.8165 41.1682 28.813V28.811Z" fill="#161615"/>
</svg>
