<svg width="259" height="286" viewBox="0 0 259 286" fill="none" xmlns="http://www.w3.org/2000/svg">
<g opacity="0.3" filter="url(#filter0_f_1882_1481)">
<circle cx="129.487" cy="141.818" r="125.487" fill="url(#paint0_linear_1882_1481)"/>
</g>
<circle opacity="0.5" cx="129.487" cy="141.818" r="104.416" fill="url(#paint1_linear_1882_1481)"/>
<circle opacity="0.5" cx="129.488" cy="141.818" r="84.45" fill="url(#paint2_linear_1882_1481)"/>
<g filter="url(#filter1_d_1882_1481)">
<path d="M148.537 258.663L151.465 223.862C141.745 213.33 134.676 228.067 132.357 236.753L134.56 267.911C134.707 269.992 136.429 271.611 138.515 271.629L151.216 271.741C153.172 271.758 154.841 270.281 154.142 268.455C153.248 266.119 151.379 263.723 149.78 262.025C148.924 261.116 148.433 259.906 148.537 258.663Z" fill="#FFDFDF"/>
<path d="M102.266 258.256L99.9511 223.409C109.856 213.05 116.663 227.909 118.829 236.634L116.078 267.749C115.894 269.827 114.144 271.415 112.058 271.396L99.3571 271.285C97.4018 271.267 95.7587 269.761 96.4895 267.948C97.4242 265.628 99.3353 263.265 100.964 261.595C101.836 260.702 102.349 259.501 102.266 258.256Z" fill="#FFDFDF"/>
<path d="M176.13 208.161C165.979 206.677 157.108 189.974 153.941 181.808C148.99 178.277 140.437 176.308 145.838 196.684C151.239 217.06 161.199 225.22 165.503 226.752C187.348 237.315 192.813 220.416 190.279 214.016C187.744 207.616 179.79 207.446 176.13 208.161Z" fill="url(#paint3_linear_1882_1481)"/>
<path d="M74.4648 207.267C84.6404 205.961 93.8046 189.417 97.1147 181.308C102.127 177.864 110.713 176.047 104.954 196.324C99.1956 216.602 89.0939 224.585 84.763 226.041C62.7361 236.219 57.5688 219.225 60.2156 212.871C62.8625 206.517 70.8179 206.487 74.4648 207.267Z" fill="url(#paint4_linear_1882_1481)"/>
<path d="M154.689 187.856C155.183 210.647 157.374 237.886 126.155 238.806C95.2168 239.719 96.1538 212.128 95.6602 189.336C95.1666 166.545 124.368 156.271 124.368 156.271C124.368 156.271 154.196 165.064 154.689 187.856Z" fill="url(#paint5_linear_1882_1481)"/>
<path d="M206.402 118.729C195.199 88.883 169.121 73.0178 152.963 73.3678C142.55 95.258 129.206 147.853 168.934 171.008C210.785 195.4 242.275 153.431 229.226 136.71C222.205 127.713 209.488 126.949 206.402 118.729Z" fill="#FF7171"/>
<path d="M49.3362 122.131C59.2373 91.8277 84.6034 74.8484 100.762 74.4984C112.113 95.9173 127.722 147.885 89.0331 172.739C48.2776 198.92 14.9996 158.353 27.3122 141.083C33.9373 131.791 46.6093 130.477 49.3362 122.131Z" fill="#FF7171"/>
<path fill-rule="evenodd" clip-rule="evenodd" d="M66.7353 128.228C65.9885 93.748 92.3057 65.2136 125.516 64.4943C158.727 63.775 186.255 91.1433 187.002 125.623C188.254 183.43 136.736 186.268 129.097 186.372C128.447 186.381 127.865 186.393 127.215 186.412C119.433 186.648 66.031 186.154 66.7353 128.228Z" fill="url(#paint6_radial_1882_1481)"/>
<circle cx="97.223" cy="115.223" r="6.13118" transform="rotate(-1.2407 97.223 115.223)" fill="url(#paint7_linear_1882_1481)"/>
<circle cx="99.5882" cy="112.057" r="1.1194" transform="rotate(-1.2407 99.5882 112.057)" fill="#FFF0F0"/>
<circle cx="152.264" cy="114.031" r="6.13118" transform="rotate(-1.2407 152.264 114.031)" fill="url(#paint8_linear_1882_1481)"/>
<path d="M119.427 128.451C118.074 129.634 113.817 131.104 111.435 131.759C110.726 131.954 110.291 132.851 110.648 133.494C114.309 140.093 119.224 146.723 125.937 145.946C132.398 145.198 136.844 137.901 139.552 132.993C139.928 132.311 139.406 131.442 138.636 131.327C135.63 130.878 131.872 129.273 130.364 128.214C127.254 126.031 122.374 125.876 119.427 128.451Z" fill="#FF7171"/>
<ellipse cx="100.788" cy="96.4956" rx="5.61593" ry="3.1365" transform="rotate(17.9498 100.788 96.4956)" fill="#FFAEAE"/>
<ellipse rx="5.61593" ry="3.1365" transform="matrix(-0.937092 0.349082 0.349082 0.937092 148.856 95.4545)" fill="#FFAEAE"/>
<g filter="url(#filter2_f_1882_1481)">
<ellipse cx="84.8944" cy="129.247" rx="12.0442" ry="4.21061" transform="rotate(8.2746 84.8944 129.247)" fill="#FFC8C8"/>
</g>
<g filter="url(#filter3_f_1882_1481)">
<ellipse cx="48.9897" cy="166.954" rx="19.5004" ry="7.9322" transform="rotate(28.5906 48.9897 166.954)" fill="url(#paint9_linear_1882_1481)"/>
</g>
<g filter="url(#filter4_f_1882_1481)">
<ellipse rx="19.5004" ry="7.7937" transform="matrix(-0.856519 0.516115 0.516115 0.856519 208.582 161.683)" fill="url(#paint10_linear_1882_1481)"/>
</g>
<g filter="url(#filter5_f_1882_1481)">
<ellipse rx="12.0442" ry="4.21061" transform="matrix(-0.982431 0.186627 0.186627 0.982431 168.853 127.428)" fill="#FFC8C8"/>
</g>
<path d="M128.665 119.585C128.688 120.653 125.023 121.598 125.023 121.598C125.023 121.598 121.32 120.812 121.297 119.745C121.274 118.677 122.904 117.776 124.939 117.732C126.974 117.688 128.642 118.518 128.665 119.585Z" fill="#8D1D1D"/>
<ellipse cx="125.445" cy="141.058" rx="5.80445" ry="3.01176" transform="rotate(-1.2407 125.445 141.058)" fill="#E83131" fill-opacity="0.48"/>
<circle cx="155.293" cy="111.605" r="1.1194" transform="rotate(-1.2407 155.293 111.605)" fill="#FFF0F0"/>
<path d="M145.414 217.189C145.34 225.592 136.59 232.326 125.871 232.232C115.151 232.138 106.521 225.25 106.595 216.848C106.669 208.446 115.471 195.74 126.191 195.834C136.911 195.928 145.488 208.787 145.414 217.189Z" fill="#FFE0E0"/>
</g>
<path d="M165.52 21.4241C160.405 31.317 142.121 34.0603 142.121 34.0603C142.121 34.0603 131.302 21.8727 132.981 10.3296C134.403 0.550824 148.175 -1.22655 150.173 10.4446C161.269 3.84641 170.173 12.4262 165.52 21.4241Z" fill="url(#paint11_radial_1882_1481)"/>
<path d="M118.769 23.8269C121.618 31.9805 113.422 43.7445 113.422 43.7445C113.422 43.7445 100.79 43.3467 95.1802 36.2504C90.428 30.2387 96.7648 21.5315 104.405 26.6247C106.6 16.8568 116.179 16.411 118.769 23.8269Z" fill="url(#paint12_radial_1882_1481)"/>
<path d="M118.769 23.8269C121.618 31.9805 113.422 43.7445 113.422 43.7445C113.422 43.7445 100.79 43.3467 95.1802 36.2504C90.428 30.2387 96.7648 21.5315 104.405 26.6247C106.6 16.8568 116.179 16.411 118.769 23.8269Z" fill="white" fill-opacity="0.18"/>
<path d="M140.932 52.1327C139.659 56.485 132.565 59.0059 132.565 59.0059C132.565 59.0059 127.292 54.9779 127.063 50.2339C126.87 46.2149 132.235 44.4316 133.943 48.9404C137.864 45.4389 142.091 48.1742 140.932 52.1327Z" fill="url(#paint13_radial_1882_1481)"/>
<path d="M140.932 52.1327C139.659 56.485 132.565 59.0059 132.565 59.0059C132.565 59.0059 127.292 54.9779 127.063 50.2339C126.87 46.2149 132.235 44.4316 133.943 48.9404C137.864 45.4389 142.091 48.1742 140.932 52.1327Z" fill="white" fill-opacity="0.45"/>
<defs>
<filter id="filter0_f_1882_1481" x="0" y="12.3309" width="258.975" height="258.974" filterUnits="userSpaceOnUse" color-interpolation-filters="sRGB">
<feFlood flood-opacity="0" result="BackgroundImageFix"/>
<feBlend mode="normal" in="SourceGraphic" in2="BackgroundImageFix" result="shape"/>
<feGaussianBlur stdDeviation="2" result="effect1_foregroundBlur_1882_1481"/>
</filter>
<filter id="filter1_d_1882_1481" x="12.7153" y="54.4805" width="231.496" height="231.261" filterUnits="userSpaceOnUse" color-interpolation-filters="sRGB">
<feFlood flood-opacity="0" result="BackgroundImageFix"/>
<feColorMatrix in="SourceAlpha" type="matrix" values="0 0 0 0 0 0 0 0 0 0 0 0 0 0 0 0 0 0 127 0" result="hardAlpha"/>
<feOffset dy="2"/>
<feGaussianBlur stdDeviation="6"/>
<feComposite in2="hardAlpha" operator="out"/>
<feColorMatrix type="matrix" values="0 0 0 0 0.7625 0 0 0 0 0 0 0 0 0 0 0 0 0 0.42 0"/>
<feBlend mode="normal" in2="BackgroundImageFix" result="effect1_dropShadow_1882_1481"/>
<feBlend mode="normal" in="SourceGraphic" in2="effect1_dropShadow_1882_1481" result="shape"/>
</filter>
<filter id="filter2_f_1882_1481" x="69.96" y="121.733" width="29.8691" height="15.0283" filterUnits="userSpaceOnUse" color-interpolation-filters="sRGB">
<feFlood flood-opacity="0" result="BackgroundImageFix"/>
<feBlend mode="normal" in="SourceGraphic" in2="BackgroundImageFix" result="shape"/>
<feGaussianBlur stdDeviation="1.5" result="effect1_foregroundBlur_1882_1481"/>
</filter>
<filter id="filter3_f_1882_1481" x="27.4478" y="151.309" width="43.084" height="31.2904" filterUnits="userSpaceOnUse" color-interpolation-filters="sRGB">
<feFlood flood-opacity="0" result="BackgroundImageFix"/>
<feBlend mode="normal" in="SourceGraphic" in2="BackgroundImageFix" result="shape"/>
<feGaussianBlur stdDeviation="2" result="effect1_foregroundBlur_1882_1481"/>
</filter>
<filter id="filter4_f_1882_1481" x="187.398" y="145.604" width="42.3677" height="32.1567" filterUnits="userSpaceOnUse" color-interpolation-filters="sRGB">
<feFlood flood-opacity="0" result="BackgroundImageFix"/>
<feBlend mode="normal" in="SourceGraphic" in2="BackgroundImageFix" result="shape"/>
<feGaussianBlur stdDeviation="2" result="effect1_foregroundBlur_1882_1481"/>
</filter>
<filter id="filter5_f_1882_1481" x="153.994" y="119.72" width="29.7183" height="15.4176" filterUnits="userSpaceOnUse" color-interpolation-filters="sRGB">
<feFlood flood-opacity="0" result="BackgroundImageFix"/>
<feBlend mode="normal" in="SourceGraphic" in2="BackgroundImageFix" result="shape"/>
<feGaussianBlur stdDeviation="1.5" result="effect1_foregroundBlur_1882_1481"/>
</filter>
<linearGradient id="paint0_linear_1882_1481" x1="129.487" y1="227.532" x2="129.487" y2="-194.71" gradientUnits="userSpaceOnUse">
<stop stop-color="#FF9A9A"/>
<stop offset="1" stop-color="#FFB6B6" stop-opacity="0"/>
</linearGradient>
<linearGradient id="paint1_linear_1882_1481" x1="129.487" y1="213.14" x2="129.487" y2="-138.203" gradientUnits="userSpaceOnUse">
<stop stop-color="#FF9A9A"/>
<stop offset="1" stop-color="#FFB6B6" stop-opacity="0"/>
</linearGradient>
<linearGradient id="paint2_linear_1882_1481" x1="129.488" y1="199.502" x2="129.488" y2="-84.6575" gradientUnits="userSpaceOnUse">
<stop stop-color="#FF9A9A"/>
<stop offset="1" stop-color="#FFB6B6" stop-opacity="0"/>
</linearGradient>
<linearGradient id="paint3_linear_1882_1481" x1="167.675" y1="179.735" x2="167.232" y2="230.05" gradientUnits="userSpaceOnUse">
<stop stop-color="#FFD2D2"/>
<stop offset="1" stop-color="#FFEAEA"/>
</linearGradient>
<linearGradient id="paint4_linear_1882_1481" x1="83.4193" y1="178.994" x2="82.9765" y2="229.309" gradientUnits="userSpaceOnUse">
<stop stop-color="#FFD2D2"/>
<stop offset="1" stop-color="#FFEAEA"/>
</linearGradient>
<linearGradient id="paint5_linear_1882_1481" x1="124.475" y1="156.269" x2="126.263" y2="238.806" gradientUnits="userSpaceOnUse">
<stop stop-color="#FFB7B7"/>
<stop offset="1" stop-color="#FFD2D2"/>
</linearGradient>
<radialGradient id="paint6_radial_1882_1481" cx="0" cy="0" r="1" gradientUnits="userSpaceOnUse" gradientTransform="translate(123.793 94.0716) rotate(92.0524) scale(64.3111 63.4773)">
<stop stop-color="#FEF8F8"/>
<stop offset="1" stop-color="#FFE0E0"/>
</radialGradient>
<linearGradient id="paint7_linear_1882_1481" x1="97.223" y1="109.092" x2="97.223" y2="121.354" gradientUnits="userSpaceOnUse">
<stop stop-color="#AA4444"/>
<stop offset="1" stop-color="#861414"/>
</linearGradient>
<linearGradient id="paint8_linear_1882_1481" x1="152.264" y1="107.9" x2="152.264" y2="120.162" gradientUnits="userSpaceOnUse">
<stop stop-color="#AA4444"/>
<stop offset="1" stop-color="#861414"/>
</linearGradient>
<linearGradient id="paint9_linear_1882_1481" x1="48.9897" y1="159.022" x2="48.9897" y2="174.886" gradientUnits="userSpaceOnUse">
<stop stop-color="#F55454" stop-opacity="0.28"/>
<stop offset="1" stop-color="#F55454"/>
</linearGradient>
<linearGradient id="paint10_linear_1882_1481" x1="19.5004" y1="0" x2="19.5004" y2="15.5874" gradientUnits="userSpaceOnUse">
<stop stop-color="#F55454" stop-opacity="0.28"/>
<stop offset="1" stop-color="#F55454"/>
</linearGradient>
<radialGradient id="paint11_radial_1882_1481" cx="0" cy="0" r="1" gradientUnits="userSpaceOnUse" gradientTransform="translate(146.656 23.4217) rotate(108.827) scale(15.624 17.8516)">
<stop stop-color="#F97D7D"/>
<stop offset="1" stop-color="#F45353"/>
</radialGradient>
<radialGradient id="paint12_radial_1882_1481" cx="0" cy="0" r="1" gradientUnits="userSpaceOnUse" gradientTransform="translate(109.844 35.5205) rotate(62.2259) scale(12.1163 13.8437)">
<stop stop-color="#F97D7D"/>
<stop offset="1" stop-color="#F45353"/>
</radialGradient>
<radialGradient id="paint13_radial_1882_1481" cx="0" cy="0" r="1" gradientUnits="userSpaceOnUse" gradientTransform="translate(133.549 54.4008) rotate(97.7959) scale(6.36179 7.26881)">
<stop stop-color="#F97D7D"/>
<stop offset="1" stop-color="#F45353"/>
</radialGradient>
</defs>
</svg>
