<svg width="81" height="84" viewBox="0 0 81 84" fill="none" xmlns="http://www.w3.org/2000/svg">
<path d="M52.5243 58.6131C49.5378 58.6131 46.6184 57.7275 44.1352 56.0683C41.652 54.4091 39.7166 52.0508 38.5737 49.2916C37.4308 46.5324 37.1318 43.4963 37.7145 40.5672C38.2971 37.6381 39.7352 34.9475 41.847 32.8358C43.9588 30.724 46.6494 29.2859 49.5785 28.7032C52.5076 28.1206 55.5437 28.4196 58.3029 29.5625C61.062 30.7054 63.4203 32.6408 65.0795 35.124C66.7387 37.6072 67.6243 40.5266 67.6243 43.5131C67.619 47.5163 66.0264 51.3539 63.1958 54.1846C60.3651 57.0152 56.5275 58.6078 52.5243 58.6131ZM52.5243 31.4061C50.1312 31.4061 47.7918 32.1157 45.8019 33.4453C43.8121 34.7749 42.2612 36.6646 41.3454 38.8756C40.4296 41.0866 40.1899 43.5195 40.6568 45.8667C41.1237 48.2139 42.2761 50.3699 43.9683 52.0621C45.6605 53.7543 47.8166 54.9067 50.1638 55.3736C52.5109 55.8405 54.9438 55.6009 57.1548 54.685C59.3658 53.7692 61.2555 52.2183 62.5851 50.2285C63.9146 48.2387 64.6243 45.8992 64.6243 43.5061C64.6198 40.2984 63.3436 37.2233 61.0754 34.9551C58.8072 32.6868 55.7321 31.4106 52.5243 31.4061Z" fill="#161615"/>
<path d="M79.8752 83.2553H25.5142V79.2403C25.5181 74.6168 27.3563 70.1836 30.6252 66.9138C33.894 63.644 38.3266 61.8046 42.9502 61.7993H62.4392C67.0619 61.8046 71.4937 63.6433 74.7624 66.912C78.0312 70.1808 79.8699 74.6126 79.8752 79.2353V83.2553ZM28.5142 80.2553H76.8752V79.2403C76.8722 75.4121 75.3506 71.7414 72.6441 69.034C69.9376 66.3265 66.2674 64.8036 62.4392 64.7993H42.9502C39.1228 64.8036 35.4534 66.3258 32.7471 69.0322C30.0407 71.7386 28.5184 75.408 28.5142 79.2353V80.2553Z" fill="#161615"/>
<path d="M21.9422 75.9901C14.7129 72.3082 8.76756 66.5239 4.88845 59.3984C1.00934 52.2729 -0.621795 44.14 0.209619 36.0698C1.04103 27.9995 4.29606 20.37 9.54644 14.1851C14.7968 8.0001 21.7966 3.54949 29.6248 1.41875C37.4529 -0.711979 45.7427 -0.422983 53.4035 2.2477C61.0642 4.91839 67.7371 9.84563 72.544 16.3812C77.351 22.9167 80.0668 30.7544 80.3343 38.863C80.6017 46.9715 78.4081 54.9711 74.0422 61.8091L71.5142 60.1921C75.553 53.8644 77.5816 46.4624 77.3333 38.9597C77.0849 31.4571 74.5712 24.2054 70.1228 18.1586C65.6744 12.1119 59.4998 7.55338 52.4113 5.08285C45.3227 2.61231 37.6523 2.34546 30.4092 4.31743C23.1661 6.28941 16.6896 10.4078 11.8318 16.1308C6.97396 21.8538 3.96241 28.9133 3.19329 36.3806C2.42418 43.8478 3.93354 51.373 7.52282 57.966C11.1121 64.5591 16.6132 69.9112 23.3022 73.3181L21.9422 75.9901Z" fill="#161615"/>
<path d="M17.3741 48.1629H2.05811V45.1629H17.3741C19.4381 45.2167 21.4392 44.45 22.9388 43.0308C24.4385 41.6116 25.3142 39.6557 25.3741 37.5919V26.9139H26.8741C28.9379 26.9664 30.9384 26.1991 32.4378 24.7799C33.9371 23.3608 34.8132 21.4055 34.8741 19.3419V19.2349C34.8142 17.1711 33.9385 15.2152 32.4388 13.796C30.9392 12.3768 28.9381 11.6101 26.8741 11.6639H15.1371V8.66392H26.8761C29.7353 8.61165 32.4986 9.69493 34.5605 11.6764C36.6223 13.6579 37.8147 16.3759 37.8761 19.2349V19.3419C37.8293 21.9421 36.8405 24.4369 35.0933 26.3632C33.3462 28.2894 30.9594 29.5163 28.3761 29.8159V37.5919C28.3146 40.4512 27.1221 43.1696 25.0598 45.1511C22.9974 47.1327 20.2336 48.2157 17.3741 48.1629Z" fill="#161615"/>
<path d="M49.9584 25.6483C48.6115 25.6485 47.2948 25.2493 46.1747 24.5011C45.0547 23.753 44.1817 22.6895 43.6661 21.4451C43.1505 20.2008 43.0155 18.8315 43.2782 17.5104C43.5408 16.1893 44.1894 14.9758 45.1417 14.0233C46.0941 13.0708 47.3075 12.4221 48.6285 12.1592C49.9496 11.8964 51.3189 12.0312 52.5633 12.5466C53.8077 13.062 54.8713 13.9349 55.6197 15.0548C56.368 16.1747 56.7675 17.4914 56.7675 18.8383C56.7651 20.6435 56.047 22.3742 54.7706 23.6507C53.4942 24.9273 51.7637 25.6457 49.9584 25.6483ZM49.9584 15.0283C49.2048 15.0281 48.4681 15.2514 47.8414 15.6699C47.2147 16.0885 46.7263 16.6834 46.4377 17.3796C46.1492 18.0758 46.0736 18.8419 46.2205 19.581C46.3674 20.3201 46.7302 20.9991 47.263 21.5321C47.7958 22.065 48.4747 22.428 49.2138 22.5751C49.9529 22.7221 50.719 22.6467 51.4152 22.3584C52.1115 22.0701 52.7066 21.5817 53.1253 20.9551C53.544 20.3286 53.7675 19.5919 53.7675 18.8383C53.7664 17.8283 53.3648 16.86 52.6507 16.1458C51.9366 15.4315 50.9684 15.0297 49.9584 15.0283Z" fill="#161615"/>
</svg>
