<svg width="76" height="71" viewBox="0 0 76 71" fill="none" xmlns="http://www.w3.org/2000/svg">
<path d="M68.1388 62.4208H7.41282C6.70201 62.452 6.00365 62.2268 5.44493 61.7863C4.8862 61.3458 4.50432 60.7192 4.36885 60.0208L1.57984 24.7208C1.52826 24.2073 1.63154 23.6901 1.87641 23.2358C2.12129 22.7815 2.49653 22.4109 2.95384 22.1718C3.52617 21.8409 4.18364 21.6869 4.84336 21.7293C5.50309 21.7717 6.13551 22.0084 6.66084 22.4098L24.8728 36.6738C25.021 36.7688 25.1995 36.8045 25.3728 36.7738C25.4774 36.7645 25.5764 36.7225 25.6558 36.6538L34.9998 16.2788C35.2459 15.7551 35.6385 15.314 36.1301 15.0089C36.6218 14.7038 37.1914 14.5478 37.7698 14.5598C38.3485 14.5474 38.9183 14.7033 39.4102 15.0084C39.902 15.3136 40.2948 15.7548 40.5408 16.2788L49.8908 36.6608C49.9697 36.7248 50.0657 36.7641 50.1668 36.7738C50.3421 36.8073 50.5235 36.7714 50.6728 36.6738L68.8848 22.4108C69.4101 22.0097 70.0422 21.773 70.7017 21.7305C71.3611 21.688 72.0184 21.8415 72.5908 22.1718C73.0588 22.4212 73.4399 22.8069 73.6837 23.2778C73.9275 23.7488 74.0224 24.2827 73.9558 24.8088L71.1858 59.9358C71.0661 60.6493 70.691 61.2948 70.1303 61.7521C69.5697 62.2093 68.8618 62.447 68.1388 62.4208ZM7.32884 59.4128C7.35682 59.4183 7.3853 59.421 7.41383 59.4208H68.1388C68.168 59.421 68.1972 59.4183 68.2258 59.4128L70.9608 24.7308C70.8854 24.718 70.8079 24.7321 70.7418 24.7708L52.5288 39.0348C52.1027 39.3581 51.6114 39.585 51.0889 39.6996C50.5664 39.8143 50.0252 39.814 49.5028 39.6988C49.0284 39.607 48.58 39.4123 48.1891 39.1282C47.7982 38.8441 47.4745 38.4777 47.2409 38.0548L47.2038 37.9798L37.8218 17.5288C37.8218 17.5538 37.7299 17.5538 37.6939 17.5748L28.3488 37.9808C28.1179 38.4206 27.7915 38.8032 27.3935 39.1004C26.9956 39.3977 26.5361 39.6021 26.0488 39.6988C25.527 39.8136 24.9864 39.8138 24.4645 39.6993C23.9426 39.5848 23.4517 39.3584 23.0258 39.0358L4.81083 24.7708C4.74444 24.7291 4.66441 24.7151 4.58784 24.7318L7.32884 59.4128ZM70.9818 24.4848V24.5058V24.4848ZM4.56285 24.3978V24.4488C4.56485 24.4318 4.56384 24.4138 4.56184 24.3978H4.56285Z" fill="#161615"/>
<path d="M37.7762 9.988C36.4522 9.98641 35.1829 9.45975 34.2467 8.52354C33.3105 7.58732 32.7838 6.318 32.7822 4.994C32.7838 3.66999 33.3105 2.40068 34.2467 1.46446C35.1829 0.52825 36.4522 0.00158785 37.7762 0C39.1001 0.00185241 40.3691 0.528629 41.3051 1.46481C42.2411 2.401 42.7676 3.67017 42.7692 4.994C42.7676 6.31783 42.2411 7.58699 41.3051 8.52318C40.3691 9.45936 39.1001 9.98615 37.7762 9.988ZM37.7762 3C37.2479 3.00158 36.7416 3.21217 36.368 3.58578C35.9944 3.95938 35.7838 4.46564 35.7822 4.994C35.7838 5.52235 35.9944 6.02862 36.368 6.40222C36.7416 6.77583 37.2479 6.98642 37.7762 6.988C38.3044 6.98615 38.8104 6.77545 39.1838 6.40187C39.5572 6.02829 39.7676 5.52218 39.7692 4.994C39.7676 4.46581 39.5572 3.9597 39.1838 3.58613C38.8104 3.21255 38.3044 3.00185 37.7762 3Z" fill="#161615"/>
<path d="M4.99402 18.1452C3.67001 18.1436 2.40069 17.617 1.46448 16.6807C0.528265 15.7445 0.00158785 14.4752 0 13.1512C0.00185241 11.8274 0.528629 10.5583 1.46481 9.62231C2.401 8.68632 3.67019 8.15979 4.99402 8.1582C6.31785 8.15979 7.58701 8.68632 8.52319 9.62231C9.45938 10.5583 9.98615 11.8274 9.98801 13.1512C9.98642 14.4752 9.45974 15.7445 8.52353 16.6807C7.58732 17.617 6.31802 18.1436 4.99402 18.1452ZM4.99402 11.1582C4.46584 11.1598 3.9597 11.3702 3.58612 11.7436C3.21254 12.117 3.00185 12.623 3 13.1512C3.00158 13.6796 3.21218 14.1858 3.58578 14.5594C3.95939 14.933 4.46566 15.1436 4.99402 15.1452C5.52237 15.1436 6.02862 14.933 6.40222 14.5594C6.77583 14.1858 6.98642 13.6796 6.98801 13.1512C6.98616 12.623 6.77546 12.117 6.40189 11.7436C6.02831 11.3702 5.5222 11.1598 4.99402 11.1582Z" fill="#161615"/>
<path d="M70.5579 18.1452C69.2339 18.1436 67.9646 17.617 67.0284 16.6807C66.0922 15.7445 65.5656 14.4752 65.564 13.1512C65.5658 11.8274 66.0926 10.5583 67.0287 9.62231C67.9649 8.68632 69.2341 8.15979 70.5579 8.1582C71.8816 8.16005 73.1505 8.6867 74.0865 9.62267C75.0225 10.5586 75.5491 11.8275 75.551 13.1512C75.5494 14.475 75.0229 15.7442 74.0869 16.6804C73.1509 17.6166 71.8818 18.1434 70.5579 18.1452ZM70.5579 11.1582C70.0297 11.1598 69.5237 11.3702 69.1501 11.7436C68.7765 12.117 68.5658 12.623 68.564 13.1512C68.5655 13.6796 68.7761 14.1858 69.1497 14.5594C69.5233 14.933 70.0296 15.1436 70.5579 15.1452C71.0861 15.1434 71.5921 14.9327 71.9655 14.5591C72.3389 14.1855 72.5494 13.6794 72.551 13.1512C72.5491 12.6232 72.3385 12.1173 71.9651 11.744C71.5918 11.3706 71.0859 11.16 70.5579 11.1582Z" fill="#161615"/>
<path d="M71.9998 70.9321H3.55078C3.15296 70.9321 2.77145 70.7741 2.49014 70.4928C2.20884 70.2115 2.05078 69.83 2.05078 69.4321C2.05078 69.0343 2.20884 68.6528 2.49014 68.3715C2.77145 68.0902 3.15296 67.9321 3.55078 67.9321H71.9998C72.3976 67.9321 72.7792 68.0902 73.0605 68.3715C73.3418 68.6528 73.4998 69.0343 73.4998 69.4321C73.4998 69.83 73.3418 70.2115 73.0605 70.4928C72.7792 70.7741 72.3976 70.9321 71.9998 70.9321Z" fill="#161615"/>
</svg>
