<svg width="25" height="26" viewBox="0 0 25 26" fill="none" xmlns="http://www.w3.org/2000/svg">
<path d="M19.563 25.3939H18.4135V7.05637C18.4133 6.82149 18.3199 6.59628 18.1538 6.43019C17.9878 6.2641 17.7625 6.17069 17.5276 6.17049H2.73519C2.50037 6.1708 2.27525 6.26424 2.10925 6.43032C1.94324 6.59639 1.84989 6.82155 1.84969 7.05637V25.3939H0.700195V7.05637C0.700702 6.51678 0.915249 5.99942 1.29676 5.61783C1.67828 5.23625 2.19559 5.0216 2.73519 5.021H17.5276C18.0673 5.0216 18.5846 5.23623 18.9662 5.61781C19.3478 5.99938 19.5624 6.51675 19.563 7.05637V25.3939Z" fill="#161615"/>
<path d="M24.7603 20.3729H23.6108V2.03499C23.6106 1.80027 23.5173 1.57522 23.3513 1.40921C23.1854 1.24321 22.9604 1.1498 22.7257 1.14949H7.93284C7.69802 1.1497 7.47286 1.24304 7.30678 1.40905C7.1407 1.57506 7.04726 1.80017 7.04696 2.03499V3.44197H5.89746V2.03499C5.89817 1.4955 6.11279 0.978305 6.49427 0.596824C6.87575 0.215344 7.39296 0.000709662 7.93245 0H22.7253C23.2648 0.000608668 23.782 0.215217 24.1634 0.596731C24.5449 0.978244 24.7594 1.4955 24.7599 2.03499L24.7603 20.3729Z" fill="#161615"/>
<path d="M10.37 19.4439H9.22053V16.6885C9.26881 15.3298 10.5539 15.0233 11.0379 14.9076C12.1947 14.631 13.3614 13.8206 13.3614 12.6331C13.3614 11.0093 11.4567 10.2525 10.1689 10.2525C8.81323 10.2525 7.17635 11.3147 7.17635 12.6331H6.02686C6.02686 10.6131 8.21358 9.10303 10.1689 9.10303C12.2575 9.10303 14.5109 10.4529 14.5109 12.6331C14.5109 14.447 12.9016 15.644 11.3049 16.0257C10.5283 16.2111 10.3808 16.4012 10.3696 16.7092L10.37 19.4439Z" fill="#161615"/>
<path d="M9.78015 22.5133C9.46584 22.5165 9.16304 22.3951 8.9381 22.1755C8.71316 21.956 8.58442 21.6562 8.58008 21.3419C8.58452 21.0275 8.71347 20.7277 8.93865 20.5082C9.16383 20.2887 9.46686 20.1674 9.7813 20.171C10.0958 20.1673 10.3989 20.2885 10.6242 20.508C10.8495 20.7275 10.9785 21.0274 10.9829 21.3419C10.9786 21.6567 10.8495 21.9569 10.6239 22.1765C10.3984 22.3961 10.0949 22.5173 9.78015 22.5133ZM9.78015 21.3209C9.77021 21.3199 9.7602 21.3215 9.75106 21.3255C9.74193 21.3295 9.73401 21.3358 9.72804 21.3438C9.73491 21.3505 9.74308 21.3558 9.75204 21.3592C9.761 21.3626 9.77056 21.3642 9.78015 21.3638C9.78984 21.3644 9.79956 21.3629 9.80854 21.3591C9.81751 21.3554 9.8255 21.3497 9.83188 21.3423C9.82556 21.3349 9.81757 21.3291 9.80858 21.3254C9.79959 21.3217 9.78985 21.3201 9.78015 21.3209Z" fill="#161615"/>
</svg>
