<svg width="74" height="74" viewBox="0 0 74 74" fill="none" xmlns="http://www.w3.org/2000/svg">
<path d="M67.7371 73.154H5.41605C3.97967 73.1521 2.60268 72.5807 1.58701 71.5651C0.571335 70.5494 -0.000100931 69.1724 -0.00195312 67.736V5.418C-0.000365003 3.98155 0.570972 2.60438 1.5867 1.58865C2.60243 0.572922 3.97959 0.00158812 5.41605 0H67.735C69.1715 0.00158812 70.5487 0.572922 71.5644 1.58865C72.5801 2.60438 73.1515 3.98155 73.1531 5.418V67.736C73.1512 69.172 72.5801 70.5487 71.5648 71.5644C70.5496 72.58 69.1731 73.1516 67.7371 73.154ZM5.41605 3C4.775 3.00079 4.16044 3.2558 3.70715 3.70909C3.25386 4.16238 2.99884 4.77695 2.99805 5.418V67.736C2.99884 68.3771 3.25386 68.9916 3.70715 69.4449C4.16044 69.8982 4.775 70.1532 5.41605 70.154H67.735C68.3761 70.1532 68.9907 69.8982 69.444 69.4449C69.8973 68.9916 70.1523 68.3771 70.1531 67.736V5.418C70.1523 4.77695 69.8973 4.16238 69.444 3.70909C68.9907 3.2558 68.3761 3.00079 67.735 3H5.41605Z" fill="#161615"/>
<path d="M63.5869 59.1592H9.00089C8.73542 59.1592 8.47475 59.0887 8.24542 58.955C8.0161 58.8213 7.82635 58.6291 7.69559 58.3981C7.56482 58.1671 7.49771 57.9055 7.5011 57.64C7.50449 57.3746 7.57828 57.1148 7.71491 56.8872L24.2649 29.2872C24.7178 28.5508 25.3518 27.9426 26.1065 27.5208C26.8612 27.0989 27.7113 26.8774 28.5759 26.8774C29.4405 26.8774 30.2906 27.0989 31.0453 27.5208C31.8 27.9426 32.434 28.5508 32.8869 29.2872L40.5159 42.0172L43.3429 38.0042C43.8097 37.3482 44.4271 36.8139 45.1434 36.4462C45.8597 36.0785 46.6538 35.8881 47.4589 35.8912C48.2642 35.8878 49.0586 36.078 49.7751 36.4457C50.4915 36.8134 51.1091 37.3479 51.5759 38.0042L64.8159 56.8002C64.9739 57.0249 65.0673 57.2887 65.0857 57.5627C65.1041 57.8368 65.0468 58.1107 64.9203 58.3545C64.7937 58.5983 64.6025 58.8026 64.3678 58.9452C64.133 59.0878 63.8636 59.1632 63.5889 59.1632L63.5869 59.1592ZM11.6499 56.1592H60.6969L49.1279 39.7302C48.9354 39.4701 48.6846 39.2587 48.3956 39.113C48.1066 38.9674 47.7875 38.8915 47.4639 38.8915C47.1403 38.8915 46.8212 38.9674 46.5322 39.113C46.2432 39.2587 45.9924 39.4701 45.7999 39.7302L41.6459 45.6302C41.4998 45.832 41.3069 45.9953 41.0838 46.1061C40.8606 46.2168 40.614 46.2718 40.3649 46.2662C40.1152 46.2572 39.8718 46.186 39.6566 46.059C39.4415 45.9321 39.2615 45.7534 39.1329 45.5392L30.3159 30.8312C30.1294 30.5391 29.8724 30.2986 29.5685 30.132C29.2645 29.9654 28.9235 29.8781 28.5769 29.8781C28.2303 29.8781 27.8893 29.9654 27.5854 30.132C27.2814 30.2986 27.0244 30.5391 26.8379 30.8312L11.6499 56.1592Z" fill="#161615"/>
<path d="M17.1571 26.2151C15.6128 26.2153 14.103 25.7575 12.8189 24.8997C11.5347 24.0418 10.5338 22.8223 9.94268 21.3956C9.35159 19.9688 9.19689 18.3988 9.49813 16.8841C9.79937 15.3694 10.543 13.9781 11.635 12.886C12.7271 11.794 14.1184 11.0503 15.6331 10.7491C17.1478 10.4479 18.7178 10.6026 20.1446 11.1937C21.5714 11.7848 22.7908 12.7857 23.6487 14.0699C24.5066 15.354 24.9643 16.8638 24.9641 18.4081C24.9615 20.4779 24.1381 22.4621 22.6746 23.9256C21.2111 25.3891 19.2269 26.2125 17.1571 26.2151ZM17.1571 13.6001C16.2062 13.5999 15.2765 13.8817 14.4857 14.4099C13.6949 14.9381 13.0785 15.689 12.7144 16.5675C12.3503 17.446 12.255 18.4128 12.4404 19.3455C12.6258 20.2782 13.0836 21.135 13.756 21.8075C14.4284 22.4801 15.2851 22.9381 16.2178 23.1237C17.1505 23.3093 18.1172 23.2141 18.9958 22.8502C19.8744 22.4864 20.6254 21.8701 21.1538 21.0794C21.6821 20.2887 21.9641 19.3591 21.9641 18.4081C21.9631 17.1335 21.4563 15.9113 20.5551 15.0099C19.6538 14.1085 18.4318 13.6014 17.1571 13.6001Z" fill="#161615"/>
<path d="M63.587 65.6318H9.00098C8.60315 65.6318 8.22164 65.4738 7.94034 65.1925C7.65903 64.9112 7.50098 64.5297 7.50098 64.1318C7.50098 63.734 7.65903 63.3525 7.94034 63.0712C8.22164 62.7899 8.60315 62.6318 9.00098 62.6318H63.587C63.9848 62.6318 64.3663 62.7899 64.6476 63.0712C64.9289 63.3525 65.087 63.734 65.087 64.1318C65.087 64.5297 64.9289 64.9112 64.6476 65.1925C64.3663 65.4738 63.9848 65.6318 63.587 65.6318Z" fill="#161615"/>
</svg>
