<svg width="24" height="26" viewBox="0 0 24 26" fill="none" xmlns="http://www.w3.org/2000/svg">
<path d="M23.6586 25.7471H22.5283V2.42264C22.5279 2.08002 22.3916 1.75154 22.1494 1.50927C21.9071 1.267 21.5786 1.13072 21.236 1.13032H2.42227C2.07968 1.13072 1.75124 1.26701 1.50903 1.5093C1.26682 1.75158 1.13062 2.08005 1.13032 2.42264V25.7471H0V2.42264C0.000797405 1.78043 0.256243 1.16474 0.710322 0.710587C1.1644 0.256437 1.78006 0.00089729 2.42227 0H21.2379C21.8802 0.000797617 22.4959 0.256288 22.9501 0.710449C23.4042 1.16461 23.6597 1.78036 23.6605 2.42264L23.6586 25.7471Z" fill="#161615"/>
<path d="M20.2536 5.29297H3.33545V6.42329H20.2536V5.29297Z" fill="#161615"/>
<path d="M20.2536 10.3447H3.33545V11.475H20.2536V10.3447Z" fill="#161615"/>
<path d="M20.2536 15.3965H3.33545V16.5268H20.2536V15.3965Z" fill="#161615"/>
<path d="M20.2536 20.4478H3.33545V21.5781H20.2536V20.4478Z" fill="#161615"/>
</svg>
