<svg width="27" height="25" viewBox="0 0 27 25" fill="none" xmlns="http://www.w3.org/2000/svg">
<path d="M26.2586 2.04507L24.7703 0.667196C24.3088 0.239995 23.6829 0 23.0303 0C22.3777 0 21.7518 0.239995 21.2903 0.667196L20.6689 1.24251L20.5011 1.0843L18.3262 3.09788L18.494 3.25609L2.04501 18.4846C2.01175 18.5188 1.98449 18.5576 1.96423 18.5996C1.96313 18.6092 1.96313 18.6188 1.96423 18.6284V18.6514L0.022297 24.439C-0.00394448 24.5142 -0.00708927 24.5946 0.0132131 24.6713C0.0335155 24.748 0.0764633 24.818 0.137258 24.8734C0.224958 24.9538 0.343178 24.9992 0.466609 25C0.513087 25.0005 0.559327 24.9937 0.603322 24.9798L6.8579 23.1791H6.91383C6.95922 23.1603 7.00116 23.1351 7.03811 23.1043L23.4871 7.87584L23.658 8.03117L25.8329 6.01759L25.662 5.86225L26.2834 5.28694C26.5128 5.07318 26.6941 4.81952 26.8171 4.54059C26.9401 4.26165 27.0022 3.96295 26.9999 3.66169C26.9977 3.36026 26.9311 3.06223 26.8038 2.78477C26.6766 2.50731 26.4913 2.25591 26.2586 2.04507ZM1.14396 23.9069L2.59497 19.592L5.81392 22.5606L1.14396 23.9069ZM6.69012 22.1522L3.03929 18.7722L19.1589 3.86305L22.8253 7.23724L6.69012 22.1522ZM23.6393 6.77412L19.6498 3.08062L20.5011 2.29245L24.4875 5.98594L23.6393 6.77412ZM25.5999 4.64547L24.9785 5.22078L21.3276 1.84946L21.9491 1.27415C22.0914 1.14125 22.2609 1.03577 22.4475 0.963791C22.6341 0.891808 22.8343 0.854748 23.0365 0.854747C23.2387 0.854748 23.4389 0.891808 23.6256 0.963791C23.8122 1.03577 23.9816 1.14125 24.124 1.27415L25.6123 2.65202C25.897 2.91984 26.0555 3.28113 26.0532 3.65687C26.0508 4.03261 25.8879 4.3922 25.5999 4.65698V4.64547Z" fill="#A5A5A5"/>
</svg>
