<svg width="24" height="26" viewBox="0 0 24 26" fill="none" xmlns="http://www.w3.org/2000/svg">
<path d="M23.7767 25.4408H22.6599V2.39327C22.6596 2.05478 22.5249 1.73028 22.2855 1.49097C22.0461 1.25166 21.7216 1.11708 21.3831 1.11679H2.79306C2.45457 1.11708 2.13003 1.25166 1.89064 1.49097C1.65126 1.73028 1.5166 2.05478 1.5162 2.39327V25.4389H0.399414V2.39327C0.400104 1.75868 0.652523 1.15029 1.10128 0.701604C1.55004 0.252917 2.15847 0.000591224 2.79306 0H21.382C22.0166 0.000591224 22.625 0.252917 23.0738 0.701604C23.5225 1.15029 23.7749 1.75868 23.7756 2.39327L23.7767 25.4408Z" fill="#161615"/>
<path d="M12.2243 17.9631H11.1075V14.5011C11.1633 12.9253 12.6363 12.5727 13.2666 12.422C14.7828 12.0598 16.3128 10.9862 16.3128 9.40479C16.3128 7.25199 13.8209 6.24911 12.1368 6.24911C10.3588 6.24911 8.212 7.65664 8.212 9.40479H7.09521C7.09521 6.9594 9.75689 5.13232 12.1368 5.13232C14.6823 5.13232 17.4296 6.76582 17.4296 9.40479C17.4296 11.5952 15.4689 13.044 13.5261 13.5082C12.5723 13.7368 12.244 13.9922 12.225 14.5212L12.2243 17.9631Z" fill="#161615"/>
<path d="M11.6455 21.6577C11.2938 21.6623 10.9546 21.5272 10.7023 21.2821C10.45 21.0369 10.3053 20.7017 10.2998 20.35C10.3054 19.9983 10.4502 19.6632 10.7024 19.4182C10.9547 19.1731 11.2939 19.038 11.6455 19.0426C11.9973 19.0379 12.3365 19.1729 12.5889 19.418C12.8412 19.6631 12.986 19.9983 12.9916 20.35C12.986 20.7018 12.8412 21.0369 12.5889 21.2821C12.3365 21.5272 11.9973 21.6623 11.6455 21.6577ZM11.6455 20.1594C11.5902 20.1556 11.5355 20.1733 11.4928 20.2088C11.4502 20.2443 11.4229 20.2949 11.4166 20.35C11.4227 20.4052 11.45 20.456 11.4926 20.4916C11.5353 20.5272 11.5901 20.5449 11.6455 20.541C11.701 20.5449 11.7558 20.5272 11.7986 20.4916C11.8413 20.456 11.8686 20.4053 11.8748 20.35C11.8685 20.2948 11.8411 20.2442 11.7984 20.2087C11.7557 20.1733 11.7009 20.1556 11.6455 20.1594Z" fill="#161615"/>
<path d="M5.99452 5.23291H3.6958V6.3497H5.99452V5.23291Z" fill="#161615"/>
<path d="M5.60365 10.2241H3.6958V11.3409H5.60365V10.2241Z" fill="#161615"/>
<path d="M8.29361 15.2158H3.6958V16.3326H8.29361V15.2158Z" fill="#161615"/>
<path d="M8.29361 20.2065H3.6958V21.3233H8.29361V20.2065Z" fill="#161615"/>
<path d="M20.8261 5.23291H18.167V6.3497H20.8261V5.23291Z" fill="#161615"/>
<path d="M20.8264 10.2241H18.6211V11.3409H20.8264V10.2241Z" fill="#161615"/>
<path d="M20.8261 15.2158H15.1621V16.3326H20.8261V15.2158Z" fill="#161615"/>
<path d="M20.8261 20.2065H15.1621V21.3233H20.8261V20.2065Z" fill="#161615"/>
</svg>
