<svg width="20" height="25" viewBox="0 0 20 25" fill="none" xmlns="http://www.w3.org/2000/svg">
<path d="M18.6411 20.0715H1.34717V8.40432C1.34956 6.22141 2.21778 4.1286 3.76133 2.58506C5.30487 1.04151 7.39768 0.173288 9.58059 0.170898H10.4074C12.5903 0.173203 14.6832 1.04138 16.2268 2.58494C17.7704 4.12849 18.6387 6.22136 18.6411 8.40432V20.0715ZM2.31452 19.1041H17.6737V8.40432C17.6716 6.47783 16.9053 4.63088 15.5431 3.26868C14.1808 1.90648 12.3338 1.14029 10.4074 1.13825H9.58059C7.65416 1.14038 5.80724 1.90659 4.44505 3.26878C3.08286 4.63097 2.31665 6.47789 2.31452 8.40432V19.1041Z" fill="#F23E3E"/>
<path d="M15.2108 14.8069H14.2435V9.15311C14.2421 8.02622 13.7937 6.94591 12.9967 6.14927C12.1997 5.35262 11.1192 4.90472 9.99229 4.90387C8.86569 4.90515 7.78559 5.35323 6.98893 6.14983C6.19227 6.94643 5.7441 8.0265 5.74274 9.15311V14.8069H4.77539V9.15311C4.77727 7.7701 5.32752 6.44428 6.30548 5.46638C7.28344 4.48848 8.60929 3.93831 9.99229 3.93652C11.3753 3.93831 12.7012 4.48848 13.6791 5.46638C14.6571 6.44428 15.2073 7.7701 15.2092 9.15311L15.2108 14.8069Z" fill="#F23E3E"/>
<path d="M12.5717 14.8808H11.6043V12.3815C11.6035 11.9551 11.4337 11.5463 11.1321 11.2447C10.8306 10.9432 10.4218 10.7734 9.99531 10.7725C9.56883 10.7734 9.16007 10.9432 8.8585 11.2447C8.55694 11.5463 8.38715 11.9551 8.38629 12.3815V14.8808H7.41895V12.3815C7.4198 11.6985 7.69151 11.0437 8.17449 10.5607C8.65747 10.0777 9.31228 9.80603 9.99531 9.80518C10.6783 9.80603 11.3332 10.0777 11.8161 10.5607C12.2991 11.0437 12.5708 11.6985 12.5717 12.3815V14.8808Z" fill="#F23E3E"/>
<path d="M18.2561 24.9993H1.73188C1.27271 24.9988 0.832491 24.8161 0.507812 24.4914C0.183134 24.1668 0.00051208 23.7266 0 23.2674V23.1342C0.00051208 22.675 0.183134 22.2348 0.507812 21.9102C0.832491 21.5855 1.27271 21.4029 1.73188 21.4023H18.2561C18.7153 21.4029 19.1555 21.5855 19.4802 21.9102C19.8048 22.2348 19.9875 22.675 19.988 23.1342V23.2674C19.9875 23.7266 19.8048 24.1668 19.4802 24.4914C19.1555 24.8161 18.7153 24.9988 18.2561 24.9993ZM1.73188 22.3703C1.52919 22.3706 1.33487 22.4512 1.19155 22.5945C1.04823 22.7379 0.967604 22.9322 0.967348 23.1349V23.268C0.967604 23.4707 1.04823 23.665 1.19155 23.8084C1.33487 23.9517 1.52919 24.0323 1.73188 24.0326H18.2561C18.4588 24.0324 18.6532 23.9518 18.7965 23.8084C18.9399 23.6651 19.0205 23.4707 19.0206 23.268V23.1349C19.0205 22.9321 18.9399 22.7378 18.7965 22.5944C18.6532 22.4511 18.4588 22.3705 18.2561 22.3703H1.73188Z" fill="#F23E3E"/>
<path d="M15.8666 16.6914H4.12109V17.6588H15.8666V16.6914Z" fill="#F23E3E"/>
</svg>
