<svg width="81" height="89" viewBox="0 0 81 89" fill="none" xmlns="http://www.w3.org/2000/svg">
<path d="M53.2841 63.407C50.2976 63.407 47.3782 62.5214 44.895 60.8622C42.4118 59.203 40.4764 56.8447 39.3335 54.0856C38.1906 51.3264 37.8916 48.2903 38.4742 45.3611C39.0569 42.432 40.495 39.7415 42.6068 37.6297C44.7186 35.5179 47.4091 34.0798 50.3383 33.4972C53.2674 32.9145 56.3035 33.2136 59.0626 34.3564C61.8218 35.4993 64.1801 37.4347 65.8393 39.9179C67.4985 42.4011 68.3841 45.3205 68.3841 48.307C68.3785 52.3101 66.7859 56.1476 63.9553 58.9782C61.1247 61.8088 57.2872 63.4015 53.2841 63.407ZM53.2841 36.199C50.891 36.199 48.5515 36.9086 46.5617 38.2382C44.5719 39.5678 43.021 41.4576 42.1052 43.6686C41.1893 45.8796 40.9497 48.3124 41.4166 50.6596C41.8835 53.0068 43.0359 55.1628 44.7281 56.855C46.4203 58.5473 48.5763 59.6996 50.9235 60.1665C53.2707 60.6334 55.7036 60.3938 57.9145 59.478C60.1255 58.5621 62.0153 57.0113 63.3449 55.0214C64.6745 53.0316 65.3841 50.6922 65.3841 48.299C65.3799 45.0912 64.1037 42.0159 61.8354 39.7477C59.5671 37.4794 56.4919 36.2033 53.2841 36.199Z" fill="#161615"/>
<path d="M80.6339 88.0471H26.2749V84.0331C26.2799 79.4105 28.1184 74.9787 31.387 71.71C34.6555 68.4412 39.0873 66.6025 43.7099 66.5972H63.1979C67.8207 66.6022 72.2527 68.4408 75.5215 71.7096C78.7902 74.9784 80.6289 79.4104 80.6339 84.0331V88.0471ZM29.2749 85.0471H77.6339V84.0331C77.6296 80.2058 76.1074 76.5364 73.401 73.83C70.6947 71.1237 67.0253 69.6014 63.1979 69.5972H43.7099C39.8827 69.6017 36.2136 71.1241 33.5074 73.8304C30.8013 76.5367 29.2791 80.2059 29.2749 84.0331V85.0471Z" fill="#161615"/>
<path d="M23.2421 82.8831H18.8131C13.824 82.8776 9.04076 80.8932 5.51291 77.3653C1.98505 73.8375 0.000675531 69.0542 -0.00488281 64.0651V22.5361H79.2421V64.0651C79.2419 65.338 79.1142 66.6077 78.8611 67.8551L75.9211 67.2551C76.1347 66.2052 76.2422 65.1365 76.2421 64.0651V25.5361H3.00211V64.0651C3.00687 68.2588 4.67493 72.2794 7.64035 75.2448C10.6058 78.2103 14.6264 79.8784 18.8201 79.8831H23.2421V82.8831Z" fill="#161615"/>
<path d="M58.8952 19.275H55.8952C55.8952 14.9587 54.1806 10.8192 51.1285 7.76718C48.0764 4.71512 43.937 3.00049 39.6207 3.00049C35.3044 3.00049 31.1649 4.71512 28.1129 7.76718C25.0608 10.8192 23.3462 14.9587 23.3462 19.275H20.3462C20.3462 14.1631 22.3769 9.26054 25.9916 5.64587C29.6062 2.0312 34.5088 0.000488281 39.6207 0.000488281C44.7326 0.000488281 49.6352 2.0312 53.2498 5.64587C56.8645 9.26054 58.8952 14.1631 58.8952 19.275Z" fill="#161615"/>
<path d="M23.2163 48.5078H20.2163V40.1418C20.2298 38.4618 20.9091 36.8558 22.1051 35.6761C23.3012 34.4963 24.9164 33.8391 26.5963 33.8487H39.6813V36.8487H26.5963C25.7118 36.8386 24.8594 37.1795 24.2258 37.7968C23.5923 38.4141 23.2292 39.2573 23.2163 40.1418V48.5078Z" fill="#161615"/>
<path d="M28.8602 70.5542H26.5602C24.8803 70.5638 23.2651 69.9066 22.069 68.7269C20.873 67.5471 20.1937 65.9412 20.1802 64.2612V59.1372L16.5362 62.2372L14.5952 59.9502L23.1802 52.6572V64.2652C23.1929 65.1497 23.5558 65.9932 24.1894 66.6105C24.8231 67.2278 25.6756 67.5686 26.5602 67.5582H28.8602V70.5542Z" fill="#161615"/>
</svg>
