<svg width="90" height="90" viewBox="0 0 90 90" fill="none" xmlns="http://www.w3.org/2000/svg">
<path d="M44.8701 89.7199C32.9679 89.7186 21.5536 84.9893 13.1382 76.5725C4.72276 68.1557 -0.0045692 56.7406 -0.00390618 44.8384C-0.00324316 32.9362 4.72536 21.5217 13.1417 13.1058C21.5581 4.68988 32.9729 -0.0380859 44.8751 -0.0380859C56.7773 -0.0380859 68.1921 4.68988 76.6085 13.1058C85.0248 21.5217 89.7534 32.9362 89.7541 44.8384C89.7548 56.7406 85.0274 68.1557 76.612 76.5725C68.1966 84.9893 56.7823 89.7186 44.8801 89.7199H44.8701ZM44.8701 3.00991C36.5888 3.00794 28.4931 5.46232 21.607 10.0625C14.721 14.6627 9.35419 21.202 6.18555 28.8531C3.01691 36.5042 2.18886 44.9232 3.80615 53.045C5.42344 61.1668 9.41341 68.6264 15.2712 74.48C21.1291 80.3336 28.5915 84.3183 36.7145 85.9297C44.8374 87.5412 53.2559 86.7071 60.9046 83.533C68.5534 80.3588 75.0889 74.9873 79.6842 68.098C84.2794 61.2087 86.728 53.1112 86.7201 44.8299C86.709 33.7368 82.2952 23.1016 74.4484 15.2604C66.6016 7.41917 55.9632 3.01309 44.8701 3.00991Z" fill="#1D1D1B"/>
<path d="M44.86 52.4598C49.0519 52.4598 52.45 49.0616 52.45 44.8698C52.45 40.6779 49.0519 37.2798 44.86 37.2798C40.6682 37.2798 37.27 40.6779 37.27 44.8698C37.27 49.0616 40.6682 52.4598 44.86 52.4598Z" fill="#1D1D1B"/>
</svg>
