<svg width="26" height="29" viewBox="0 0 26 29" fill="none" xmlns="http://www.w3.org/2000/svg">
<path d="M7.39143 13.8745L7.73866 14.1541L8.08589 13.8745C9.4921 12.6904 10.8195 11.4158 12.0595 10.0587L12.1426 9.97184C13.0416 9.03965 13.8451 8.01985 14.5411 6.92766C15.3652 5.61778 15.6493 4.35556 15.3822 3.17682C14.9533 1.27591 13.246 0 11.1341 0C9.9007 0.0495794 8.71363 0.483563 7.73903 1.24119C6.76503 0.483254 5.57819 0.0492188 4.34502 0C2.23244 0 0.525093 1.27738 0.0969633 3.17682C-0.169371 4.35593 0.113589 5.61778 0.938081 6.92766C1.63389 8.01974 2.43727 9.03943 3.3362 9.97148L3.41968 10.059C4.65946 11.4156 5.98618 12.6901 7.39143 13.8745ZM4.13705 9.20647C3.28946 8.32793 2.53175 7.36692 1.87523 6.33774C1.20367 5.27019 0.975019 4.31603 1.17671 3.4195C1.49402 2.0158 2.73704 1.10562 4.34466 1.10562C5.64788 1.10562 6.67184 1.83738 7.16203 2.18905C7.265 2.26744 7.37325 2.33864 7.486 2.40218L7.73608 2.52963L7.98689 2.40403C8.10198 2.34 8.21223 2.26766 8.31677 2.18756C8.8088 1.83627 9.83129 1.10562 11.1338 1.10562C12.741 1.10562 13.984 2.01395 14.3017 3.4195C14.503 4.31455 14.2744 5.26871 13.6032 6.33774C12.947 7.36703 12.1894 8.32805 11.3417 9.20647L11.2583 9.29363C10.1481 10.5001 8.97343 11.6455 7.73939 12.7249C6.50608 11.6453 5.3318 10.5 4.22164 9.29401L4.13705 9.20647Z" fill="#161615"/>
<path d="M17.2264 3.7832V4.89139H24.3809V7.06234H16.3554V8.17052H24.3809V23.7461H5.47V14.185H4.36182V28.061H25.489V3.78469L17.2264 3.7832ZM5.47 26.9513V24.8543H24.3809V26.9528L5.47 26.9513Z" fill="#161615"/>
<path d="M22.8623 10.4717H14.2827V11.5799H22.8623V10.4717Z" fill="#161615"/>
<path d="M8.10059 22.0059H21.752L20.7118 18.1808H19.7816C19.8859 17.9473 19.9397 17.6944 19.9397 17.4387C19.9275 16.9683 19.7472 16.5179 19.4316 16.1689C19.116 15.8199 18.6858 15.5955 18.2191 15.5363C18.083 15.1238 17.8185 14.7656 17.4643 14.5141C17.1102 14.2627 16.6849 14.131 16.2506 14.1385C15.7691 14.1364 15.3016 14.2995 14.9259 14.6006C14.5503 14.2995 14.0827 14.1364 13.6013 14.1385C13.167 14.131 12.7416 14.2627 12.3875 14.5141C12.0333 14.7656 11.7689 15.1238 11.6327 15.5363C11.166 15.5956 10.736 15.8201 10.4204 16.169C10.1049 16.518 9.92469 16.9684 9.91247 17.4387C9.91245 17.6944 9.96631 17.9473 10.0706 18.1808H9.14042L8.10059 22.0059ZM11.0188 17.4387C11.0282 17.3221 11.0605 17.2084 11.1139 17.1043C11.1673 17.0002 11.2407 16.9077 11.3299 16.832C11.4192 16.7563 11.5224 16.6989 11.6339 16.6632C11.7453 16.6275 11.8626 16.6141 11.9792 16.6238H11.9881L12.0553 16.6315C12.1356 16.6388 12.2165 16.6285 12.2924 16.6015C12.3683 16.5746 12.4375 16.5315 12.4953 16.4753C12.5525 16.4191 12.5968 16.3511 12.6252 16.2761C12.6536 16.2011 12.6653 16.1209 12.6597 16.0409C12.684 15.8132 12.7952 15.6037 12.9699 15.4558C13.1447 15.3079 13.3698 15.233 13.5983 15.2467C13.7673 15.2427 13.9344 15.284 14.0821 15.3661C14.2299 15.4482 14.3531 15.5683 14.439 15.714C14.487 15.8002 14.5572 15.8721 14.6423 15.9222C14.7273 15.9723 14.8242 15.9987 14.923 15.9988C15.0217 15.9988 15.1187 15.9724 15.2039 15.9223C15.289 15.8722 15.3592 15.8003 15.4072 15.714C15.493 15.5683 15.6161 15.4482 15.7639 15.3661C15.9116 15.2839 16.0786 15.2427 16.2476 15.2467C16.4769 15.2328 16.7027 15.3082 16.8776 15.4571C17.0526 15.606 17.1632 15.8167 17.1862 16.0453C17.1862 16.0576 17.1862 16.0691 17.1862 16.0797C17.1862 16.1568 17.2023 16.233 17.2335 16.3036C17.2647 16.3741 17.3102 16.4374 17.3672 16.4893C17.4241 16.5415 17.4913 16.5812 17.5645 16.6057C17.6377 16.6302 17.7152 16.639 17.792 16.6315L17.8944 16.6197C18.1265 16.6063 18.3547 16.6846 18.5296 16.8378C18.7046 16.991 18.8123 17.2068 18.8297 17.4387C18.8233 17.6029 18.7677 17.7615 18.6702 17.8938C18.5726 18.0261 18.4376 18.1261 18.2826 18.1808H11.5677C11.4127 18.1261 11.2777 18.0261 11.1802 17.8938C11.0826 17.7615 11.0271 17.6029 11.0207 17.4387H11.0188ZM9.9845 19.289H11.3882C11.5734 19.34 11.7646 19.366 11.9567 19.3662H17.8896C18.0817 19.366 18.2729 19.34 18.4581 19.289H19.8618L20.2995 20.8977H9.54972L9.9845 19.289Z" fill="#161615"/>
</svg>
